<?xml version="1.0" encoding="UTF-8" standalone="no"?>
<!-- Generator: Adobe Illustrator 18.0.0, SVG Export Plug-In . SVG Version: 6.00 Build 0)  -->

<svg
   xmlns:dc="http://purl.org/dc/elements/1.1/"
   xmlns:cc="http://creativecommons.org/ns#"
   xmlns:rdf="http://www.w3.org/1999/02/22-rdf-syntax-ns#"
   xmlns:svg="http://www.w3.org/2000/svg"
   xmlns="http://www.w3.org/2000/svg"
   xmlns:sodipodi="http://sodipodi.sourceforge.net/DTD/sodipodi-0.dtd"
   xmlns:inkscape="http://www.inkscape.org/namespaces/inkscape"
   version="1.1"
   id="Capa_1"
   x="0px"
   y="0px"
   viewBox="0 0 58 58"
   style="enable-background:new 0 0 58 58;"
   xml:space="preserve"
   sodipodi:docname="138368 - Copie.svg"
   inkscape:version="0.92.3 (2405546, 2018-03-11)"><metadata
   id="metadata117"><rdf:RDF><cc:Work
       rdf:about=""><dc:format>image/svg+xml</dc:format><dc:type
         rdf:resource="http://purl.org/dc/dcmitype/StillImage" /></cc:Work></rdf:RDF></metadata><defs
   id="defs115">
	
	
	
	
	
	
	
	
	
	
	
	
	
	
	
	
	
	
	
	
	
	
	
	
	
	
	
</defs><sodipodi:namedview
   pagecolor="#ffffff"
   bordercolor="#666666"
   borderopacity="1"
   objecttolerance="10"
   gridtolerance="10"
   guidetolerance="10"
   inkscape:pageopacity="0"
   inkscape:pageshadow="2"
   inkscape:window-width="1920"
   inkscape:window-height="1017"
   id="namedview113"
   showgrid="false"
   inkscape:zoom="11.508772"
   inkscape:cx="23.325089"
   inkscape:cy="31.63514"
   inkscape:window-x="-8"
   inkscape:window-y="-8"
   inkscape:window-maximized="1"
   inkscape:current-layer="Capa_1" />
<rect
   id="rect2"
   height="52"
   width="8"
   style="fill:#b5c3c6"
   y="3.0829999"
   x="29" /><g
   id="g8">
		<path
   inkscape:connector-curvature="0"
   id="path4"
   d="M 29,6.083 H 0.944 C 0.422,6.083 0,6.506 0,7.027 V 51.14 c 0,0.521 0.422,0.944 0.944,0.944 H 29 Z"
   style="fill:#b6c8cc" />
		<path
   inkscape:connector-curvature="0"
   id="path6"
   d="m 45.889,6.083 7.111,4 v 38 l -7.111,4 h 11.168 c 0.521,0 0.944,-0.422 0.944,-0.944 V 7.027 c 0,-0.521 -0.422,-0.944 -0.944,-0.944 z"
   style="fill:#b6c8cc" />
	</g><path
   inkscape:connector-curvature="0"
   id="path10"
   d="m 37,1.201 v 55.598 c 0,0.09 0.097,0.146 0.175,0.102 L 53,48 V 10 L 37.175,1.098 C 37.097,1.054 37,1.111 37,1.201 Z"
   style="fill:#e3e9ec" /><path
   inkscape:connector-curvature="0"
   id="path12"
   d="M 29,10.083 H 5.345 C 4.602,10.083 4,10.686 4,11.429 v 35.309 c 0,0.743 0.602,1.345 1.345,1.345 H 29 Z"
   style="fill:#556080" /><g
   id="g22">
		<path
   inkscape:connector-curvature="0"
   id="path14"
   d="m 52,16.083 h 3 c 0.553,0 1,-0.447 1,-1 0,-0.553 -0.447,-1 -1,-1 h -3 c -0.553,0 -1,0.447 -1,1 0,0.553 0.447,1 1,1 z"
   style="fill:#a3b8be" />
		<path
   inkscape:connector-curvature="0"
   id="path16"
   d="m 55,17.083 h -3 c -0.553,0 -1,0.447 -1,1 0,0.553 0.447,1 1,1 h 3 c 0.553,0 1,-0.447 1,-1 0,-0.553 -0.447,-1 -1,-1 z"
   style="fill:#a3b8be" />
		<path
   inkscape:connector-curvature="0"
   id="path18"
   d="m 55,39.083 h -3 c -0.553,0 -1,0.447 -1,1 0,0.553 0.447,1 1,1 h 3 c 0.553,0 1,-0.447 1,-1 0,-0.553 -0.447,-1 -1,-1 z"
   style="fill:#a3b8be" />
		<path
   inkscape:connector-curvature="0"
   id="path20"
   d="m 55,42.083 h -3 c -0.553,0 -1,0.447 -1,1 0,0.553 0.447,1 1,1 h 3 c 0.553,0 1,-0.447 1,-1 0,-0.553 -0.447,-1 -1,-1 z"
   style="fill:#a3b8be" />
	</g><rect
   id="rect24"
   height="4"
   width="8"
   style="fill:#556080"
   y="52.083"
   x="2" /><rect
   id="rect26"
   height="4"
   width="8"
   style="fill:#556080"
   y="52.083"
   x="48" /><g
   id="g40">
		<circle
   id="circle28"
   r="1"
   cy="6"
   cx="33"
   style="fill:#556080" />
		<circle
   id="circle30"
   r="1"
   cy="12"
   cx="33"
   style="fill:#556080" />
		<circle
   id="circle32"
   r="1"
   cy="46"
   cx="33"
   style="fill:#556080" />
		<circle
   id="circle34"
   r="1"
   cy="40"
   cx="33"
   style="fill:#556080" />
		<circle
   id="circle36"
   r="1"
   cy="18"
   cx="33"
   style="fill:#556080" />
		<circle
   id="circle38"
   r="1"
   cy="52"
   cx="33"
   style="fill:#556080" />
	</g><path
   inkscape:connector-curvature="0"
   id="path42"
   d="m 40,19 v 4 c 1.66,0 3.011,1.351 3.011,3.011 V 31.99 C 43.011,33.649 41.66,35 40,35 v 4 c 3.866,0 7.011,-3.145 7.011,-7.011 V 26.01 C 47.011,22.144 43.866,19 40,19 Z"
   style="fill:#b5c3c6" /><path
   inkscape:connector-curvature="0"
   id="path44"
   d="M 41.063,20.583 H 40.225 V 20.555 H 40 v 1.028 h 1.063 c 1.62,0 3.937,1.888 3.937,3.507 v 7.818 c 0,1.62 -2.318,3.656 -3.937,3.656 H 40 v 0.987 h 1.195 C 43.304,37.48 46,35.035 46,32.909 v -7.818 c 0,-2.171 -2.766,-4.508 -4.937,-4.508 z"
   style="fill:#cfe1e5" /><rect
   id="rect78"
   height="2"
   width="25"
   style="fill:#b5c3c6"
   y="29.083"
   x="4" />
<g
   id="g82">
</g>
<g
   id="g84">
</g>
<g
   id="g86">
</g>
<g
   id="g88">
</g>
<g
   id="g90">
</g>
<g
   id="g92">
</g>
<g
   id="g94">
</g>
<g
   id="g96">
</g>
<g
   id="g98">
</g>
<g
   id="g100">
</g>
<g
   id="g102">
</g>
<g
   id="g104">
</g>
<g
   id="g106">
</g>
<g
   id="g108">
</g>
<g
   id="g110">
</g>
<g
   id="g369"
   transform="matrix(0.03544117,0,0,0.03544117,8.7138052,11.437739)"><g
     id="g279">
	<path
   id="path209"
   d="m 512,256 c 0,3.001 -0.088,5.914 -0.265,8.828 -0.527,17.903 -3.164,35.681 -7.857,52.966 -1.589,6.003 -3.443,11.917 -5.473,17.655 -6.58,18.708 -15.509,36.506 -26.571,52.966 -4.061,6.091 -8.474,12.006 -13.065,17.655 -45.202,55.878 -113.243,88.324 -185.114,88.276 -5.914,0 -11.829,-0.177 -17.655,-0.706 V 18.361 c 5.826,-0.53 11.741,-0.706 17.655,-0.706 71.872,-0.049 139.913,32.398 185.114,88.276 4.65,5.661 9.01,11.554 13.065,17.655 11.062,16.46 19.991,34.257 26.571,52.966 2.03,5.738 3.884,11.652 5.473,17.655 4.693,17.285 7.33,35.063 7.857,52.966 0.177,2.913 0.265,5.826 0.265,8.827 z"
   style="fill:#b19046"
   inkscape:connector-curvature="0" />
	<g
   id="g221">
		<path
   id="path211"
   d="m 471.834,123.586 h -83.421 c -4.875,0 -8.828,-3.952 -8.828,-8.828 0,-4.876 3.952,-8.828 8.828,-8.828 h 70.356 c 4.651,5.662 9.011,11.555 13.065,17.656 z"
   style="fill:#e4c05c"
   inkscape:connector-curvature="0" />
		<path
   id="path213"
   d="m 471.834,388.414 c -4.061,6.091 -8.474,12.006 -13.065,17.655 h -70.356 c -4.875,0 -8.828,-3.952 -8.828,-8.828 0,-4.875 3.952,-8.828 8.828,-8.828 h 83.421 z"
   style="fill:#e4c05c"
   inkscape:connector-curvature="0" />
		<path
   id="path215"
   d="M 503.879,194.207 H 384.53 c -4.875,0 -8.828,-3.952 -8.828,-8.828 0,-4.875 3.952,-8.828 8.828,-8.828 h 113.876 c 2.03,5.739 3.884,11.653 5.473,17.656 z"
   style="fill:#e4c05c"
   inkscape:connector-curvature="0" />
		<path
   id="path217"
   d="m 512,256 c 0,3.001 -0.088,5.914 -0.265,8.828 h -70.797 c -4.875,0 -8.828,-3.952 -8.828,-8.828 0,-4.876 3.952,-8.828 8.828,-8.828 h 70.797 c 0.177,2.914 0.265,5.827 0.265,8.828 z"
   style="fill:#e4c05c"
   inkscape:connector-curvature="0" />
		<path
   id="path219"
   d="m 503.879,317.793 c -1.589,6.003 -3.443,11.917 -5.473,17.655 H 384.53 c -4.875,0 -8.828,-3.952 -8.828,-8.828 0,-4.876 3.952,-8.828 8.828,-8.828 h 119.349 z"
   style="fill:#e4c05c"
   inkscape:connector-curvature="0" />
	</g>
	<circle
   id="circle223"
   r="238.345"
   cy="256"
   cx="238.345"
   style="fill:#f3d55b" />
	<path
   id="path225"
   d="M 238.345,423.724 C 145.714,423.724 70.621,348.631 70.621,256 c 0,-92.631 75.092,-167.724 167.724,-167.724 92.632,0 167.724,75.093 167.724,167.724 -0.105,92.588 -75.136,167.619 -167.724,167.724 z"
   style="fill:#e4c05c"
   inkscape:connector-curvature="0" />
	<g
   id="g277">
		<path
   id="path227"
   d="m 238.345,61.793 c -2.337,-0.035 -4.575,-0.949 -6.268,-2.56 -1.627,-1.683 -2.544,-3.927 -2.56,-6.268 0.012,-1.154 0.251,-2.295 0.703,-3.358 0.449,-1.069 1.077,-2.053 1.857,-2.91 2.525,-2.546 6.341,-3.312 9.653,-1.937 3.312,1.375 5.463,4.618 5.442,8.204 -0.02,0.591 -0.079,1.18 -0.177,1.763 -0.098,0.553 -0.277,1.089 -0.53,1.591 -0.194,0.563 -0.462,1.098 -0.797,1.591 -0.349,0.44 -0.703,0.879 -1.056,1.323 -1.693,1.612 -3.931,2.526 -6.267,2.561 z"
   style="fill:#f9eab0"
   inkscape:connector-curvature="0" />
		<path
   id="path229"
   d="m 238.345,467.862 c -2.337,-0.035 -4.575,-0.949 -6.268,-2.56 -1.627,-1.683 -2.544,-3.927 -2.56,-6.268 0.012,-1.154 0.251,-2.295 0.703,-3.358 0.449,-1.069 1.077,-2.053 1.857,-2.91 2.525,-2.546 6.341,-3.312 9.653,-1.937 3.312,1.375 5.463,4.618 5.442,8.204 -0.02,0.591 -0.079,1.18 -0.177,1.763 -0.098,0.553 -0.277,1.089 -0.53,1.591 -0.194,0.563 -0.462,1.098 -0.797,1.591 -0.349,0.44 -0.703,0.879 -1.056,1.323 -1.693,1.612 -3.931,2.526 -6.267,2.561 z"
   style="fill:#f9eab0"
   inkscape:connector-curvature="0" />
		<path
   id="path231"
   d="m 185.819,68.677 c -1.176,0.009 -2.344,-0.2 -3.444,-0.616 -1.056,-0.462 -2.015,-1.122 -2.823,-1.944 -3.414,-3.447 -3.414,-9.001 0,-12.448 0.785,-0.849 1.749,-1.512 2.823,-1.94 3.309,-1.319 7.085,-0.558 9.625,1.939 1.691,1.629 2.647,3.876 2.647,6.224 0,2.348 -0.955,4.595 -2.647,6.224 -1.626,1.659 -3.858,2.583 -6.181,2.561 z"
   style="fill:#f9eab0"
   inkscape:connector-curvature="0" />
		<path
   id="path233"
   d="m 290.866,460.974 c -2.351,-0.047 -4.594,-0.994 -6.268,-2.647 -3.414,-3.447 -3.414,-9.001 0,-12.448 3.539,-3.267 8.995,-3.267 12.534,0 0.427,0.377 0.786,0.824 1.06,1.323 0.325,0.481 0.62,0.982 0.884,1.5 0.189,0.548 0.336,1.11 0.44,1.681 0.146,0.576 0.206,1.17 0.177,1.763 0.023,2.323 -0.902,4.555 -2.56,6.181 -0.8,0.873 -1.8,1.539 -2.914,1.94 -1.059,0.455 -2.199,0.696 -3.353,0.707 z"
   style="fill:#f9eab0"
   inkscape:connector-curvature="0" />
		<path
   id="path235"
   d="m 136.828,88.978 c -1.149,0.019 -2.29,-0.19 -3.358,-0.616 -1.066,-0.49 -2.048,-1.145 -2.91,-1.94 -0.381,-0.42 -0.735,-0.863 -1.06,-1.328 -0.335,-0.491 -0.603,-1.024 -0.797,-1.586 -0.254,-0.501 -0.431,-1.037 -0.526,-1.591 -0.104,-0.584 -0.163,-1.175 -0.177,-1.767 0.013,-1.153 0.251,-2.292 0.703,-3.353 0.807,-2.215 2.552,-3.96 4.767,-4.767 1.611,-0.704 3.4,-0.889 5.121,-0.53 0.553,0.098 1.089,0.277 1.591,0.53 0.563,0.194 1.098,0.462 1.591,0.797 0.44,0.353 0.879,0.703 1.323,1.056 0.778,0.86 1.405,1.845 1.854,2.914 0.495,1.047 0.737,2.196 0.707,3.353 -0.016,0.593 -0.075,1.183 -0.177,1.767 -0.098,0.553 -0.277,1.089 -0.53,1.591 -0.194,0.562 -0.462,1.095 -0.797,1.586 -0.349,0.444 -0.703,0.884 -1.056,1.328 -0.421,0.377 -0.862,0.73 -1.323,1.056 -0.51,0.329 -1.042,0.624 -1.591,0.884 -0.518,0.188 -1.05,0.336 -1.591,0.444 -0.578,0.143 -1.172,0.201 -1.764,0.172 z"
   style="fill:#f9eab0"
   inkscape:connector-curvature="0" />
		<path
   id="path237"
   d="m 339.862,440.672 c -2.348,0.023 -4.607,-0.9 -6.267,-2.56 -1.66,-1.66 -2.583,-3.919 -2.56,-6.267 0.012,-1.153 0.251,-2.292 0.703,-3.353 0.405,-1.092 1.038,-2.085 1.857,-2.913 2.536,-2.51 6.335,-3.242 9.621,-1.854 1.071,0.446 2.056,1.073 2.914,1.854 3.414,3.481 3.414,9.054 0,12.534 -0.859,0.779 -1.844,1.406 -2.914,1.854 -1.061,0.452 -2.201,0.691 -3.354,0.705 z"
   style="fill:#f9eab0"
   inkscape:connector-curvature="0" />
		<path
   id="path239"
   d="m 94.806,121.289 c -2.359,-0.008 -4.616,-0.962 -6.268,-2.647 -0.447,-0.38 -0.834,-0.826 -1.147,-1.323 -0.267,-0.444 -0.53,-0.974 -0.793,-1.504 -0.2,-0.544 -0.348,-1.105 -0.444,-1.677 -0.146,-0.546 -0.205,-1.112 -0.177,-1.677 -0.01,-1.177 0.201,-2.345 0.621,-3.444 1.11,-2.74 3.529,-4.736 6.43,-5.305 2.901,-0.569 5.894,0.364 7.958,2.482 0.851,0.783 1.514,1.748 1.94,2.823 0.446,1.094 0.686,2.262 0.707,3.444 -0.014,0.563 -0.073,1.123 -0.177,1.677 -0.177,0.621 -0.353,1.151 -0.53,1.677 -0.263,0.53 -0.53,1.06 -0.793,1.504 -0.313,0.497 -0.699,0.943 -1.147,1.323 -0.785,0.851 -1.751,1.514 -2.828,1.94 -1.058,0.455 -2.198,0.695 -3.352,0.707 z"
   style="fill:#f9eab0"
   inkscape:connector-curvature="0" />
		<path
   id="path241"
   d="m 381.879,408.362 c -1.147,0.017 -2.287,-0.193 -3.353,-0.616 -1.058,-0.46 -2.017,-1.12 -2.823,-1.944 -1.703,-1.639 -2.661,-3.904 -2.651,-6.268 0.014,-1.153 0.254,-2.293 0.707,-3.353 0.949,-2.121 2.646,-3.818 4.767,-4.767 3.309,-1.311 7.08,-0.549 9.621,1.944 1.658,1.625 2.583,3.855 2.56,6.177 0.024,2.348 -0.899,4.607 -2.56,6.268 -1.651,1.675 -3.916,2.6 -6.268,2.559 z"
   style="fill:#f9eab0"
   inkscape:connector-curvature="0" />
		<path
   id="path243"
   d="m 62.496,163.31 c -1.153,-0.014 -2.293,-0.254 -3.353,-0.707 -1.069,-0.449 -2.054,-1.076 -2.914,-1.854 -0.353,-0.444 -0.703,-0.884 -1.056,-1.323 -0.335,-0.492 -0.603,-1.027 -0.797,-1.591 -0.253,-0.501 -0.432,-1.037 -0.53,-1.591 -0.101,-0.583 -0.16,-1.172 -0.177,-1.763 0.035,-2.337 0.949,-4.575 2.56,-6.268 0.859,-0.78 1.844,-1.409 2.914,-1.858 2.132,-0.97 4.579,-0.97 6.711,0 1.091,0.408 2.084,1.041 2.914,1.858 1.61,1.693 2.523,3.931 2.556,6.268 -0.017,2.34 -0.932,4.583 -2.556,6.268 -0.831,0.815 -1.824,1.446 -2.914,1.854 -1.063,0.454 -2.204,0.694 -3.358,0.707 z"
   style="fill:#f9eab0"
   inkscape:connector-curvature="0" />
		<path
   id="path245"
   d="m 414.19,366.345 c -4.163,-0.041 -7.72,-3.011 -8.502,-7.1 -0.782,-4.089 1.427,-8.162 5.281,-9.736 3.854,-1.574 8.283,-0.213 10.588,3.255 2.304,3.467 1.844,8.078 -1.1,11.022 -1.693,1.61 -3.931,2.524 -6.267,2.559 z"
   style="fill:#f9eab0"
   inkscape:connector-curvature="0" />
		<path
   id="path247"
   d="m 42.194,212.302 c -2.333,-0.01 -4.563,-0.965 -6.181,-2.647 -1.657,-1.627 -2.581,-3.859 -2.556,-6.181 -0.009,-1.176 0.2,-2.344 0.616,-3.444 0.428,-1.074 1.091,-2.039 1.94,-2.823 0.361,-0.445 0.814,-0.807 1.328,-1.06 0.468,-0.346 0.971,-0.642 1.5,-0.884 0.544,-0.199 1.105,-0.346 1.677,-0.44 2.589,-0.532 5.279,0.136 7.319,1.816 2.04,1.68 3.211,4.192 3.185,6.835 0.029,0.565 -0.031,1.13 -0.177,1.677 -0.093,0.572 -0.24,1.133 -0.44,1.677 -0.267,0.53 -0.53,1.06 -0.797,1.5 -0.31,0.5 -0.697,0.948 -1.147,1.328 -1.651,1.684 -3.908,2.637 -6.267,2.646 z"
   style="fill:#f9eab0"
   inkscape:connector-curvature="0" />
		<path
   id="path249"
   d="m 434.491,317.349 c -2.348,0.023 -4.607,-0.9 -6.267,-2.56 -1.66,-1.66 -2.583,-3.919 -2.56,-6.267 -0.023,-2.321 0.902,-4.552 2.56,-6.177 3.47,-3.358 8.978,-3.358 12.448,0 1.682,1.616 2.637,3.844 2.646,6.177 -0.008,2.359 -0.962,4.616 -2.646,6.268 -1.626,1.657 -3.858,2.582 -6.181,2.559 z"
   style="fill:#f9eab0"
   inkscape:connector-curvature="0" />
		<path
   id="path251"
   d="m 35.31,264.828 c -1.155,-0.014 -2.296,-0.254 -3.358,-0.707 -1.068,-0.449 -2.051,-1.076 -2.91,-1.853 -0.799,-0.844 -1.429,-1.833 -1.858,-2.914 -0.937,-2.139 -0.937,-4.572 0,-6.711 0.449,-1.069 1.077,-2.053 1.858,-2.91 0.857,-0.78 1.841,-1.409 2.909,-1.858 2.151,-0.879 4.561,-0.879 6.711,0 1.07,0.449 2.056,1.077 2.915,1.858 0.778,0.858 1.405,1.842 1.854,2.909 0.943,2.138 0.943,4.573 0,6.711 -0.429,1.079 -1.058,2.068 -1.854,2.914 -0.86,0.778 -1.845,1.405 -2.914,1.854 -1.06,0.452 -2.199,0.692 -3.353,0.707 z"
   style="fill:#f9eab0"
   inkscape:connector-curvature="0" />
		<path
   id="path253"
   d="m 441.379,264.828 c -4.163,-0.041 -7.72,-3.011 -8.502,-7.1 -0.782,-4.089 1.427,-8.162 5.281,-9.736 3.854,-1.574 8.283,-0.213 10.588,3.255 2.305,3.468 1.844,8.078 -1.1,11.022 -1.692,1.61 -3.93,2.524 -6.267,2.559 z"
   style="fill:#f9eab0"
   inkscape:connector-curvature="0" />
		<path
   id="path255"
   d="m 42.194,317.349 c -2.333,0.001 -4.57,-0.932 -6.211,-2.59 -1.641,-1.658 -2.551,-3.904 -2.526,-6.237 -0.008,-2.345 0.911,-4.597 2.556,-6.268 0.407,-0.396 0.852,-0.751 1.328,-1.06 0.471,-0.316 0.974,-0.582 1.5,-0.793 0.541,-0.228 1.103,-0.405 1.677,-0.53 2.878,-0.536 5.837,0.352 7.944,2.383 0.43,0.431 0.814,0.905 1.147,1.414 0.267,0.44 0.53,0.97 0.797,1.5 0.199,0.544 0.346,1.105 0.44,1.677 0.146,0.546 0.205,1.112 0.177,1.677 0.023,2.348 -0.9,4.607 -2.56,6.267 -1.66,1.66 -3.921,2.583 -6.269,2.56 z"
   style="fill:#f9eab0"
   inkscape:connector-curvature="0" />
		<path
   id="path257"
   d="m 434.491,212.302 c -2.359,-0.008 -4.616,-0.962 -6.268,-2.647 -1.658,-1.627 -2.583,-3.858 -2.56,-6.181 -0.024,-2.348 0.899,-4.607 2.56,-6.268 3.506,-3.267 8.942,-3.267 12.448,0 1.685,1.651 2.638,3.909 2.646,6.268 -0.113,4.827 -3.999,8.713 -8.826,8.828 z"
   style="fill:#f9eab0"
   inkscape:connector-curvature="0" />
		<path
   id="path259"
   d="m 62.496,366.345 c -1.153,-0.014 -2.293,-0.254 -3.353,-0.707 -1.069,-0.449 -2.054,-1.076 -2.914,-1.854 -3.414,-3.481 -3.414,-9.054 0,-12.534 0.859,-0.78 1.844,-1.409 2.914,-1.858 2.151,-0.879 4.561,-0.879 6.711,0 1.091,0.408 2.084,1.041 2.913,1.858 3.408,3.483 3.408,9.051 0,12.534 -0.831,0.815 -1.824,1.446 -2.914,1.854 -1.062,0.453 -2.203,0.693 -3.357,0.707 z"
   style="fill:#f9eab0"
   inkscape:connector-curvature="0" />
		<path
   id="path261"
   d="m 414.19,163.31 c -4.163,-0.041 -7.72,-3.011 -8.502,-7.1 -0.782,-4.089 1.427,-8.162 5.281,-9.736 3.854,-1.574 8.283,-0.213 10.588,3.255 2.304,3.467 1.844,8.078 -1.1,11.022 -1.693,1.611 -3.931,2.525 -6.267,2.559 z"
   style="fill:#f9eab0"
   inkscape:connector-curvature="0" />
		<path
   id="path263"
   d="m 94.806,408.362 c -0.593,0.029 -1.187,-0.031 -1.763,-0.177 -0.571,-0.104 -1.133,-0.251 -1.681,-0.44 -0.526,-0.267 -0.97,-0.53 -1.5,-0.797 -0.482,-0.333 -0.925,-0.717 -1.323,-1.147 -0.823,-0.807 -1.482,-1.766 -1.94,-2.823 -0.42,-1.099 -0.631,-2.267 -0.621,-3.444 -0.017,-1.148 0.193,-2.288 0.621,-3.353 0.458,-1.058 1.117,-2.016 1.94,-2.823 0.399,-0.43 0.842,-0.815 1.323,-1.151 0.53,-0.263 0.974,-0.53 1.5,-0.793 0.53,-0.177 1.151,-0.353 1.681,-0.53 1.719,-0.361 3.508,-0.176 5.116,0.53 2.123,0.945 3.822,2.644 4.767,4.767 0.455,1.06 0.695,2.2 0.707,3.353 -0.012,1.183 -0.252,2.352 -0.707,3.444 -0.425,1.075 -1.088,2.041 -1.94,2.823 -0.809,0.823 -1.769,1.483 -2.828,1.944 -1.065,0.425 -2.205,0.634 -3.352,0.617 z"
   style="fill:#f9eab0"
   inkscape:connector-curvature="0" />
		<path
   id="path265"
   d="m 381.879,121.289 c -1.153,-0.012 -2.293,-0.252 -3.353,-0.707 -2.123,-0.945 -3.822,-2.644 -4.767,-4.767 -0.453,-1.061 -0.693,-2.2 -0.707,-3.353 -0.009,-2.363 0.949,-4.628 2.651,-6.268 1.632,-1.684 3.877,-2.634 6.222,-2.634 2.345,0 4.59,0.95 6.222,2.634 1.661,1.66 2.584,3.919 2.56,6.268 0.023,2.323 -0.902,4.555 -2.56,6.181 -1.641,1.699 -3.905,2.655 -6.268,2.646 z"
   style="fill:#f9eab0"
   inkscape:connector-curvature="0" />
		<path
   id="path267"
   d="m 136.828,440.672 c -1.155,-0.014 -2.296,-0.254 -3.358,-0.707 -1.08,-0.426 -2.067,-1.055 -2.909,-1.854 -0.402,-0.433 -0.758,-0.907 -1.06,-1.414 -0.351,-0.45 -0.621,-0.957 -0.797,-1.5 -0.267,-0.526 -0.445,-1.093 -0.526,-1.677 -0.104,-0.553 -0.163,-1.114 -0.177,-1.677 0.033,-2.337 0.947,-4.576 2.56,-6.268 0.856,-0.781 1.84,-1.408 2.909,-1.854 1.61,-0.706 3.4,-0.891 5.121,-0.53 0.554,0.094 1.091,0.274 1.591,0.531 0.563,0.192 1.098,0.459 1.591,0.793 0.462,0.327 0.904,0.681 1.324,1.061 0.816,0.83 1.448,1.823 1.854,2.914 0.495,1.047 0.737,2.196 0.707,3.353 -0.016,0.563 -0.075,1.123 -0.177,1.677 -0.085,0.584 -0.264,1.15 -0.53,1.677 -0.176,0.543 -0.446,1.05 -0.797,1.5 -0.349,0.53 -0.703,0.97 -1.056,1.414 -0.444,0.353 -0.884,0.707 -1.323,1.06 -0.492,0.334 -1.027,0.601 -1.591,0.793 -0.501,0.253 -1.037,0.432 -1.591,0.53 -0.585,0.103 -1.174,0.162 -1.765,0.178 z"
   style="fill:#f9eab0"
   inkscape:connector-curvature="0" />
		<path
   id="path269"
   d="m 339.862,88.978 c -1.159,0.032 -2.309,-0.209 -3.358,-0.703 -3.362,-1.274 -5.554,-4.531 -5.47,-8.125 0.013,-1.153 0.251,-2.292 0.703,-3.353 0.449,-1.07 1.077,-2.055 1.857,-2.914 2.578,-2.427 6.325,-3.149 9.621,-1.854 1.069,0.449 2.054,1.076 2.914,1.854 3.414,3.483 3.414,9.056 0,12.539 -0.846,0.796 -1.834,1.425 -2.914,1.854 -1.047,0.494 -2.196,0.734 -3.353,0.702 z"
   style="fill:#f9eab0"
   inkscape:connector-curvature="0" />
		<path
   id="path271"
   d="m 185.819,460.974 c -2.359,-0.008 -4.616,-0.962 -6.268,-2.647 -0.794,-0.833 -1.451,-1.788 -1.944,-2.828 -0.424,-1.066 -0.634,-2.206 -0.616,-3.353 -0.009,-1.176 0.2,-2.344 0.616,-3.444 0.493,-1.039 1.149,-1.992 1.944,-2.823 2.086,-2.068 5.064,-2.962 7.944,-2.383 0.571,0.096 1.133,0.245 1.677,0.444 0.53,0.263 1.06,0.526 1.5,0.793 0.499,0.311 0.947,0.698 1.328,1.147 0.849,0.785 1.512,1.749 1.94,2.823 0.446,1.094 0.686,2.262 0.707,3.444 -0.012,1.154 -0.252,2.293 -0.707,3.353 -0.428,1.075 -1.09,2.041 -1.94,2.828 -0.381,0.448 -0.829,0.835 -1.328,1.147 -0.44,0.263 -0.97,0.53 -1.5,0.793 -0.53,0.177 -1.056,0.353 -1.677,0.53 -0.553,0.103 -1.113,0.162 -1.676,0.176 z"
   style="fill:#f9eab0"
   inkscape:connector-curvature="0" />
		<path
   id="path273"
   d="m 290.866,68.677 c -1.147,0.017 -2.287,-0.192 -3.354,-0.616 -1.072,-0.482 -2.057,-1.139 -2.914,-1.944 -3.414,-3.447 -3.414,-9.001 0,-12.448 3.505,-3.354 9.029,-3.354 12.534,0 1.658,1.627 2.582,3.858 2.56,6.181 0.024,2.348 -0.899,4.607 -2.56,6.268 -0.825,0.844 -1.817,1.507 -2.914,1.944 -1.065,0.423 -2.204,0.632 -3.352,0.615 z"
   style="fill:#f9eab0"
   inkscape:connector-curvature="0" />
		<path
   id="path275"
   d="m 247.172,370.759 v -26.483 h -35.31 v 26.483 h -35.31 v -26.483 h -26.483 v -35.31 h 26.483 v -44.138 h -26.483 v -35.31 h 26.483 v -35.31 h -26.483 v -35.31 h 26.483 v -26.483 h 35.31 v 26.483 h 35.31 v -26.483 h 35.31 v 27.22 c 25.467,4.341 44.104,26.394 44.138,52.228 -0.03,11.526 -3.853,22.721 -10.879,31.858 17.444,15.166 24.069,39.327 16.8,61.269 -7.269,21.942 -27.01,37.369 -50.058,39.119 v 26.65 z m 30.897,-61.793 c 12.188,0 22.069,-9.881 22.069,-22.069 0,-12.188 -9.881,-22.069 -22.069,-22.069 h -66.207 v 44.138 z m -4.414,-79.449 c 9.751,0 17.655,-7.904 17.655,-17.655 0,-9.751 -7.904,-17.655 -17.655,-17.655 h -61.793 v 35.31 z"
   style="fill:#f9eab0"
   inkscape:connector-curvature="0" />
	</g>
</g><g
     id="g281">
</g><g
     id="g283">
</g><g
     id="g285">
</g><g
     id="g287">
</g><g
     id="g289">
</g><g
     id="g291">
</g><g
     id="g293">
</g><g
     id="g295">
</g><g
     id="g297">
</g><g
     id="g299">
</g><g
     id="g301">
</g><g
     id="g303">
</g><g
     id="g305">
</g><g
     id="g307">
</g><g
     id="g309">
</g></g><g
   transform="matrix(0.03252472,0,0,0.03252472,9.4604154,31.922156)"
   id="g809"><g
     id="g777">
	<path
   inkscape:connector-curvature="0"
   style="fill:#b19046"
   d="m 512,256 c 0,3.001 -0.088,5.914 -0.265,8.828 -0.527,17.903 -3.164,35.681 -7.857,52.966 -1.589,6.003 -3.443,11.917 -5.473,17.655 -6.58,18.708 -15.509,36.506 -26.571,52.966 -4.061,6.091 -8.474,12.006 -13.065,17.655 -45.202,55.878 -113.243,88.324 -185.114,88.276 -5.914,0 -11.829,-0.177 -17.655,-0.706 V 18.361 c 5.826,-0.53 11.741,-0.706 17.655,-0.706 71.872,-0.049 139.913,32.398 185.114,88.276 4.65,5.661 9.01,11.554 13.065,17.655 11.062,16.46 19.991,34.257 26.571,52.966 2.03,5.738 3.884,11.652 5.473,17.655 4.693,17.285 7.33,35.063 7.857,52.966 0.177,2.913 0.265,5.826 0.265,8.827 z"
   id="path707" />
	<g
   id="g719">
		<path
   inkscape:connector-curvature="0"
   style="fill:#e4c05c"
   d="m 471.834,123.586 h -83.421 c -4.875,0 -8.828,-3.952 -8.828,-8.828 0,-4.876 3.952,-8.828 8.828,-8.828 h 70.356 c 4.651,5.662 9.011,11.555 13.065,17.656 z"
   id="path709" />
		<path
   inkscape:connector-curvature="0"
   style="fill:#e4c05c"
   d="m 471.834,388.414 c -4.061,6.091 -8.474,12.006 -13.065,17.655 h -70.356 c -4.875,0 -8.828,-3.952 -8.828,-8.828 0,-4.875 3.952,-8.828 8.828,-8.828 h 83.421 z"
   id="path711" />
		<path
   inkscape:connector-curvature="0"
   style="fill:#e4c05c"
   d="M 503.879,194.207 H 384.53 c -4.875,0 -8.828,-3.952 -8.828,-8.828 0,-4.875 3.952,-8.828 8.828,-8.828 h 113.876 c 2.03,5.739 3.884,11.653 5.473,17.656 z"
   id="path713" />
		<path
   inkscape:connector-curvature="0"
   style="fill:#e4c05c"
   d="m 512,256 c 0,3.001 -0.088,5.914 -0.265,8.828 h -70.797 c -4.875,0 -8.828,-3.952 -8.828,-8.828 0,-4.876 3.952,-8.828 8.828,-8.828 h 70.797 c 0.177,2.914 0.265,5.827 0.265,8.828 z"
   id="path715" />
		<path
   inkscape:connector-curvature="0"
   style="fill:#e4c05c"
   d="m 503.879,317.793 c -1.589,6.003 -3.443,11.917 -5.473,17.655 H 384.53 c -4.875,0 -8.828,-3.952 -8.828,-8.828 0,-4.876 3.952,-8.828 8.828,-8.828 h 119.349 z"
   id="path717" />
	</g>
	<circle
   style="fill:#f3d55b"
   cx="238.345"
   cy="256"
   r="238.345"
   id="circle721" />
	<path
   inkscape:connector-curvature="0"
   style="fill:#e4c05c"
   d="M 238.345,423.724 C 145.714,423.724 70.621,348.631 70.621,256 c 0,-92.631 75.092,-167.724 167.724,-167.724 92.632,0 167.724,75.093 167.724,167.724 -0.105,92.588 -75.136,167.619 -167.724,167.724 z"
   id="path723" />
	<g
   id="g775">
		<path
   inkscape:connector-curvature="0"
   style="fill:#f9eab0"
   d="m 238.345,61.793 c -2.337,-0.035 -4.575,-0.949 -6.268,-2.56 -1.627,-1.683 -2.544,-3.927 -2.56,-6.268 0.012,-1.154 0.251,-2.295 0.703,-3.358 0.449,-1.069 1.077,-2.053 1.857,-2.91 2.525,-2.546 6.341,-3.312 9.653,-1.937 3.312,1.375 5.463,4.618 5.442,8.204 -0.02,0.591 -0.079,1.18 -0.177,1.763 -0.098,0.553 -0.277,1.089 -0.53,1.591 -0.194,0.563 -0.462,1.098 -0.797,1.591 -0.349,0.44 -0.703,0.879 -1.056,1.323 -1.693,1.612 -3.931,2.526 -6.267,2.561 z"
   id="path725" />
		<path
   inkscape:connector-curvature="0"
   style="fill:#f9eab0"
   d="m 238.345,467.862 c -2.337,-0.035 -4.575,-0.949 -6.268,-2.56 -1.627,-1.683 -2.544,-3.927 -2.56,-6.268 0.012,-1.154 0.251,-2.295 0.703,-3.358 0.449,-1.069 1.077,-2.053 1.857,-2.91 2.525,-2.546 6.341,-3.312 9.653,-1.937 3.312,1.375 5.463,4.618 5.442,8.204 -0.02,0.591 -0.079,1.18 -0.177,1.763 -0.098,0.553 -0.277,1.089 -0.53,1.591 -0.194,0.563 -0.462,1.098 -0.797,1.591 -0.349,0.44 -0.703,0.879 -1.056,1.323 -1.693,1.612 -3.931,2.526 -6.267,2.561 z"
   id="path727" />
		<path
   inkscape:connector-curvature="0"
   style="fill:#f9eab0"
   d="m 185.819,68.677 c -1.176,0.009 -2.344,-0.2 -3.444,-0.616 -1.056,-0.462 -2.015,-1.122 -2.823,-1.944 -3.414,-3.447 -3.414,-9.001 0,-12.448 0.785,-0.849 1.749,-1.512 2.823,-1.94 3.309,-1.319 7.085,-0.558 9.625,1.939 1.691,1.629 2.647,3.876 2.647,6.224 0,2.348 -0.955,4.595 -2.647,6.224 -1.626,1.659 -3.858,2.583 -6.181,2.561 z"
   id="path729" />
		<path
   inkscape:connector-curvature="0"
   style="fill:#f9eab0"
   d="m 290.866,460.974 c -2.351,-0.047 -4.594,-0.994 -6.268,-2.647 -3.414,-3.447 -3.414,-9.001 0,-12.448 3.539,-3.267 8.995,-3.267 12.534,0 0.427,0.377 0.786,0.824 1.06,1.323 0.325,0.481 0.62,0.982 0.884,1.5 0.189,0.548 0.336,1.11 0.44,1.681 0.146,0.576 0.206,1.17 0.177,1.763 0.023,2.323 -0.902,4.555 -2.56,6.181 -0.8,0.873 -1.8,1.539 -2.914,1.94 -1.059,0.455 -2.199,0.696 -3.353,0.707 z"
   id="path731" />
		<path
   inkscape:connector-curvature="0"
   style="fill:#f9eab0"
   d="m 136.828,88.978 c -1.149,0.019 -2.29,-0.19 -3.358,-0.616 -1.066,-0.49 -2.048,-1.145 -2.91,-1.94 -0.381,-0.42 -0.735,-0.863 -1.06,-1.328 -0.335,-0.491 -0.603,-1.024 -0.797,-1.586 -0.254,-0.501 -0.431,-1.037 -0.526,-1.591 -0.104,-0.584 -0.163,-1.175 -0.177,-1.767 0.013,-1.153 0.251,-2.292 0.703,-3.353 0.807,-2.215 2.552,-3.96 4.767,-4.767 1.611,-0.704 3.4,-0.889 5.121,-0.53 0.553,0.098 1.089,0.277 1.591,0.53 0.563,0.194 1.098,0.462 1.591,0.797 0.44,0.353 0.879,0.703 1.323,1.056 0.778,0.86 1.405,1.845 1.854,2.914 0.495,1.047 0.737,2.196 0.707,3.353 -0.016,0.593 -0.075,1.183 -0.177,1.767 -0.098,0.553 -0.277,1.089 -0.53,1.591 -0.194,0.562 -0.462,1.095 -0.797,1.586 -0.349,0.444 -0.703,0.884 -1.056,1.328 -0.421,0.377 -0.862,0.73 -1.323,1.056 -0.51,0.329 -1.042,0.624 -1.591,0.884 -0.518,0.188 -1.05,0.336 -1.591,0.444 -0.578,0.143 -1.172,0.201 -1.764,0.172 z"
   id="path733" />
		<path
   inkscape:connector-curvature="0"
   style="fill:#f9eab0"
   d="m 339.862,440.672 c -2.348,0.023 -4.607,-0.9 -6.267,-2.56 -1.66,-1.66 -2.583,-3.919 -2.56,-6.267 0.012,-1.153 0.251,-2.292 0.703,-3.353 0.405,-1.092 1.038,-2.085 1.857,-2.913 2.536,-2.51 6.335,-3.242 9.621,-1.854 1.071,0.446 2.056,1.073 2.914,1.854 3.414,3.481 3.414,9.054 0,12.534 -0.859,0.779 -1.844,1.406 -2.914,1.854 -1.061,0.452 -2.201,0.691 -3.354,0.705 z"
   id="path735" />
		<path
   inkscape:connector-curvature="0"
   style="fill:#f9eab0"
   d="m 94.806,121.289 c -2.359,-0.008 -4.616,-0.962 -6.268,-2.647 -0.447,-0.38 -0.834,-0.826 -1.147,-1.323 -0.267,-0.444 -0.53,-0.974 -0.793,-1.504 -0.2,-0.544 -0.348,-1.105 -0.444,-1.677 -0.146,-0.546 -0.205,-1.112 -0.177,-1.677 -0.01,-1.177 0.201,-2.345 0.621,-3.444 1.11,-2.74 3.529,-4.736 6.43,-5.305 2.901,-0.569 5.894,0.364 7.958,2.482 0.851,0.783 1.514,1.748 1.94,2.823 0.446,1.094 0.686,2.262 0.707,3.444 -0.014,0.563 -0.073,1.123 -0.177,1.677 -0.177,0.621 -0.353,1.151 -0.53,1.677 -0.263,0.53 -0.53,1.06 -0.793,1.504 -0.313,0.497 -0.699,0.943 -1.147,1.323 -0.785,0.851 -1.751,1.514 -2.828,1.94 -1.058,0.455 -2.198,0.695 -3.352,0.707 z"
   id="path737" />
		<path
   inkscape:connector-curvature="0"
   style="fill:#f9eab0"
   d="m 381.879,408.362 c -1.147,0.017 -2.287,-0.193 -3.353,-0.616 -1.058,-0.46 -2.017,-1.12 -2.823,-1.944 -1.703,-1.639 -2.661,-3.904 -2.651,-6.268 0.014,-1.153 0.254,-2.293 0.707,-3.353 0.949,-2.121 2.646,-3.818 4.767,-4.767 3.309,-1.311 7.08,-0.549 9.621,1.944 1.658,1.625 2.583,3.855 2.56,6.177 0.024,2.348 -0.899,4.607 -2.56,6.268 -1.651,1.675 -3.916,2.6 -6.268,2.559 z"
   id="path739" />
		<path
   inkscape:connector-curvature="0"
   style="fill:#f9eab0"
   d="m 62.496,163.31 c -1.153,-0.014 -2.293,-0.254 -3.353,-0.707 -1.069,-0.449 -2.054,-1.076 -2.914,-1.854 -0.353,-0.444 -0.703,-0.884 -1.056,-1.323 -0.335,-0.492 -0.603,-1.027 -0.797,-1.591 -0.253,-0.501 -0.432,-1.037 -0.53,-1.591 -0.101,-0.583 -0.16,-1.172 -0.177,-1.763 0.035,-2.337 0.949,-4.575 2.56,-6.268 0.859,-0.78 1.844,-1.409 2.914,-1.858 2.132,-0.97 4.579,-0.97 6.711,0 1.091,0.408 2.084,1.041 2.914,1.858 1.61,1.693 2.523,3.931 2.556,6.268 -0.017,2.34 -0.932,4.583 -2.556,6.268 -0.831,0.815 -1.824,1.446 -2.914,1.854 -1.063,0.454 -2.204,0.694 -3.358,0.707 z"
   id="path741" />
		<path
   inkscape:connector-curvature="0"
   style="fill:#f9eab0"
   d="m 414.19,366.345 c -4.163,-0.041 -7.72,-3.011 -8.502,-7.1 -0.782,-4.089 1.427,-8.162 5.281,-9.736 3.854,-1.574 8.283,-0.213 10.588,3.255 2.304,3.467 1.844,8.078 -1.1,11.022 -1.693,1.61 -3.931,2.524 -6.267,2.559 z"
   id="path743" />
		<path
   inkscape:connector-curvature="0"
   style="fill:#f9eab0"
   d="m 42.194,212.302 c -2.333,-0.01 -4.563,-0.965 -6.181,-2.647 -1.657,-1.627 -2.581,-3.859 -2.556,-6.181 -0.009,-1.176 0.2,-2.344 0.616,-3.444 0.428,-1.074 1.091,-2.039 1.94,-2.823 0.361,-0.445 0.814,-0.807 1.328,-1.06 0.468,-0.346 0.971,-0.642 1.5,-0.884 0.544,-0.199 1.105,-0.346 1.677,-0.44 2.589,-0.532 5.279,0.136 7.319,1.816 2.04,1.68 3.211,4.192 3.185,6.835 0.029,0.565 -0.031,1.13 -0.177,1.677 -0.093,0.572 -0.24,1.133 -0.44,1.677 -0.267,0.53 -0.53,1.06 -0.797,1.5 -0.31,0.5 -0.697,0.948 -1.147,1.328 -1.651,1.684 -3.908,2.637 -6.267,2.646 z"
   id="path745" />
		<path
   inkscape:connector-curvature="0"
   style="fill:#f9eab0"
   d="m 434.491,317.349 c -2.348,0.023 -4.607,-0.9 -6.267,-2.56 -1.66,-1.66 -2.583,-3.919 -2.56,-6.267 -0.023,-2.321 0.902,-4.552 2.56,-6.177 3.47,-3.358 8.978,-3.358 12.448,0 1.682,1.616 2.637,3.844 2.646,6.177 -0.008,2.359 -0.962,4.616 -2.646,6.268 -1.626,1.657 -3.858,2.582 -6.181,2.559 z"
   id="path747" />
		<path
   inkscape:connector-curvature="0"
   style="fill:#f9eab0"
   d="m 35.31,264.828 c -1.155,-0.014 -2.296,-0.254 -3.358,-0.707 -1.068,-0.449 -2.051,-1.076 -2.91,-1.853 -0.799,-0.844 -1.429,-1.833 -1.858,-2.914 -0.937,-2.139 -0.937,-4.572 0,-6.711 0.449,-1.069 1.077,-2.053 1.858,-2.91 0.857,-0.78 1.841,-1.409 2.909,-1.858 2.151,-0.879 4.561,-0.879 6.711,0 1.07,0.449 2.056,1.077 2.915,1.858 0.778,0.858 1.405,1.842 1.854,2.909 0.943,2.138 0.943,4.573 0,6.711 -0.429,1.079 -1.058,2.068 -1.854,2.914 -0.86,0.778 -1.845,1.405 -2.914,1.854 -1.06,0.452 -2.199,0.692 -3.353,0.707 z"
   id="path749" />
		<path
   inkscape:connector-curvature="0"
   style="fill:#f9eab0"
   d="m 441.379,264.828 c -4.163,-0.041 -7.72,-3.011 -8.502,-7.1 -0.782,-4.089 1.427,-8.162 5.281,-9.736 3.854,-1.574 8.283,-0.213 10.588,3.255 2.305,3.468 1.844,8.078 -1.1,11.022 -1.692,1.61 -3.93,2.524 -6.267,2.559 z"
   id="path751" />
		<path
   inkscape:connector-curvature="0"
   style="fill:#f9eab0"
   d="m 42.194,317.349 c -2.333,0.001 -4.57,-0.932 -6.211,-2.59 -1.641,-1.658 -2.551,-3.904 -2.526,-6.237 -0.008,-2.345 0.911,-4.597 2.556,-6.268 0.407,-0.396 0.852,-0.751 1.328,-1.06 0.471,-0.316 0.974,-0.582 1.5,-0.793 0.541,-0.228 1.103,-0.405 1.677,-0.53 2.878,-0.536 5.837,0.352 7.944,2.383 0.43,0.431 0.814,0.905 1.147,1.414 0.267,0.44 0.53,0.97 0.797,1.5 0.199,0.544 0.346,1.105 0.44,1.677 0.146,0.546 0.205,1.112 0.177,1.677 0.023,2.348 -0.9,4.607 -2.56,6.267 -1.66,1.66 -3.921,2.583 -6.269,2.56 z"
   id="path753" />
		<path
   inkscape:connector-curvature="0"
   style="fill:#f9eab0"
   d="m 434.491,212.302 c -2.359,-0.008 -4.616,-0.962 -6.268,-2.647 -1.658,-1.627 -2.583,-3.858 -2.56,-6.181 -0.024,-2.348 0.899,-4.607 2.56,-6.268 3.506,-3.267 8.942,-3.267 12.448,0 1.685,1.651 2.638,3.909 2.646,6.268 -0.113,4.827 -3.999,8.713 -8.826,8.828 z"
   id="path755" />
		<path
   inkscape:connector-curvature="0"
   style="fill:#f9eab0"
   d="m 62.496,366.345 c -1.153,-0.014 -2.293,-0.254 -3.353,-0.707 -1.069,-0.449 -2.054,-1.076 -2.914,-1.854 -3.414,-3.481 -3.414,-9.054 0,-12.534 0.859,-0.78 1.844,-1.409 2.914,-1.858 2.151,-0.879 4.561,-0.879 6.711,0 1.091,0.408 2.084,1.041 2.913,1.858 3.408,3.483 3.408,9.051 0,12.534 -0.831,0.815 -1.824,1.446 -2.914,1.854 -1.062,0.453 -2.203,0.693 -3.357,0.707 z"
   id="path757" />
		<path
   inkscape:connector-curvature="0"
   style="fill:#f9eab0"
   d="m 414.19,163.31 c -4.163,-0.041 -7.72,-3.011 -8.502,-7.1 -0.782,-4.089 1.427,-8.162 5.281,-9.736 3.854,-1.574 8.283,-0.213 10.588,3.255 2.304,3.467 1.844,8.078 -1.1,11.022 -1.693,1.611 -3.931,2.525 -6.267,2.559 z"
   id="path759" />
		<path
   inkscape:connector-curvature="0"
   style="fill:#f9eab0"
   d="m 94.806,408.362 c -0.593,0.029 -1.187,-0.031 -1.763,-0.177 -0.571,-0.104 -1.133,-0.251 -1.681,-0.44 -0.526,-0.267 -0.97,-0.53 -1.5,-0.797 -0.482,-0.333 -0.925,-0.717 -1.323,-1.147 -0.823,-0.807 -1.482,-1.766 -1.94,-2.823 -0.42,-1.099 -0.631,-2.267 -0.621,-3.444 -0.017,-1.148 0.193,-2.288 0.621,-3.353 0.458,-1.058 1.117,-2.016 1.94,-2.823 0.399,-0.43 0.842,-0.815 1.323,-1.151 0.53,-0.263 0.974,-0.53 1.5,-0.793 0.53,-0.177 1.151,-0.353 1.681,-0.53 1.719,-0.361 3.508,-0.176 5.116,0.53 2.123,0.945 3.822,2.644 4.767,4.767 0.455,1.06 0.695,2.2 0.707,3.353 -0.012,1.183 -0.252,2.352 -0.707,3.444 -0.425,1.075 -1.088,2.041 -1.94,2.823 -0.809,0.823 -1.769,1.483 -2.828,1.944 -1.065,0.425 -2.205,0.634 -3.352,0.617 z"
   id="path761" />
		<path
   inkscape:connector-curvature="0"
   style="fill:#f9eab0"
   d="m 381.879,121.289 c -1.153,-0.012 -2.293,-0.252 -3.353,-0.707 -2.123,-0.945 -3.822,-2.644 -4.767,-4.767 -0.453,-1.061 -0.693,-2.2 -0.707,-3.353 -0.009,-2.363 0.949,-4.628 2.651,-6.268 1.632,-1.684 3.877,-2.634 6.222,-2.634 2.345,0 4.59,0.95 6.222,2.634 1.661,1.66 2.584,3.919 2.56,6.268 0.023,2.323 -0.902,4.555 -2.56,6.181 -1.641,1.699 -3.905,2.655 -6.268,2.646 z"
   id="path763" />
		<path
   inkscape:connector-curvature="0"
   style="fill:#f9eab0"
   d="m 136.828,440.672 c -1.155,-0.014 -2.296,-0.254 -3.358,-0.707 -1.08,-0.426 -2.067,-1.055 -2.909,-1.854 -0.402,-0.433 -0.758,-0.907 -1.06,-1.414 -0.351,-0.45 -0.621,-0.957 -0.797,-1.5 -0.267,-0.526 -0.445,-1.093 -0.526,-1.677 -0.104,-0.553 -0.163,-1.114 -0.177,-1.677 0.033,-2.337 0.947,-4.576 2.56,-6.268 0.856,-0.781 1.84,-1.408 2.909,-1.854 1.61,-0.706 3.4,-0.891 5.121,-0.53 0.554,0.094 1.091,0.274 1.591,0.531 0.563,0.192 1.098,0.459 1.591,0.793 0.462,0.327 0.904,0.681 1.324,1.061 0.816,0.83 1.448,1.823 1.854,2.914 0.495,1.047 0.737,2.196 0.707,3.353 -0.016,0.563 -0.075,1.123 -0.177,1.677 -0.085,0.584 -0.264,1.15 -0.53,1.677 -0.176,0.543 -0.446,1.05 -0.797,1.5 -0.349,0.53 -0.703,0.97 -1.056,1.414 -0.444,0.353 -0.884,0.707 -1.323,1.06 -0.492,0.334 -1.027,0.601 -1.591,0.793 -0.501,0.253 -1.037,0.432 -1.591,0.53 -0.585,0.103 -1.174,0.162 -1.765,0.178 z"
   id="path765" />
		<path
   inkscape:connector-curvature="0"
   style="fill:#f9eab0"
   d="m 339.862,88.978 c -1.159,0.032 -2.309,-0.209 -3.358,-0.703 -3.362,-1.274 -5.554,-4.531 -5.47,-8.125 0.013,-1.153 0.251,-2.292 0.703,-3.353 0.449,-1.07 1.077,-2.055 1.857,-2.914 2.578,-2.427 6.325,-3.149 9.621,-1.854 1.069,0.449 2.054,1.076 2.914,1.854 3.414,3.483 3.414,9.056 0,12.539 -0.846,0.796 -1.834,1.425 -2.914,1.854 -1.047,0.494 -2.196,0.734 -3.353,0.702 z"
   id="path767" />
		<path
   inkscape:connector-curvature="0"
   style="fill:#f9eab0"
   d="m 185.819,460.974 c -2.359,-0.008 -4.616,-0.962 -6.268,-2.647 -0.794,-0.833 -1.451,-1.788 -1.944,-2.828 -0.424,-1.066 -0.634,-2.206 -0.616,-3.353 -0.009,-1.176 0.2,-2.344 0.616,-3.444 0.493,-1.039 1.149,-1.992 1.944,-2.823 2.086,-2.068 5.064,-2.962 7.944,-2.383 0.571,0.096 1.133,0.245 1.677,0.444 0.53,0.263 1.06,0.526 1.5,0.793 0.499,0.311 0.947,0.698 1.328,1.147 0.849,0.785 1.512,1.749 1.94,2.823 0.446,1.094 0.686,2.262 0.707,3.444 -0.012,1.154 -0.252,2.293 -0.707,3.353 -0.428,1.075 -1.09,2.041 -1.94,2.828 -0.381,0.448 -0.829,0.835 -1.328,1.147 -0.44,0.263 -0.97,0.53 -1.5,0.793 -0.53,0.177 -1.056,0.353 -1.677,0.53 -0.553,0.103 -1.113,0.162 -1.676,0.176 z"
   id="path769" />
		<path
   inkscape:connector-curvature="0"
   style="fill:#f9eab0"
   d="m 290.866,68.677 c -1.147,0.017 -2.287,-0.192 -3.354,-0.616 -1.072,-0.482 -2.057,-1.139 -2.914,-1.944 -3.414,-3.447 -3.414,-9.001 0,-12.448 3.505,-3.354 9.029,-3.354 12.534,0 1.658,1.627 2.582,3.858 2.56,6.181 0.024,2.348 -0.899,4.607 -2.56,6.268 -0.825,0.844 -1.817,1.507 -2.914,1.944 -1.065,0.423 -2.204,0.632 -3.352,0.615 z"
   id="path771" />
		<path
   inkscape:connector-curvature="0"
   style="fill:#f9eab0"
   d="m 247.172,370.759 v -26.483 h -35.31 v 26.483 h -35.31 v -26.483 h -26.483 v -35.31 h 26.483 v -44.138 h -26.483 v -35.31 h 26.483 v -35.31 h -26.483 v -35.31 h 26.483 v -26.483 h 35.31 v 26.483 h 35.31 v -26.483 h 35.31 v 27.22 c 25.467,4.341 44.104,26.394 44.138,52.228 -0.03,11.526 -3.853,22.721 -10.879,31.858 17.444,15.166 24.069,39.327 16.8,61.269 -7.269,21.942 -27.01,37.369 -50.058,39.119 v 26.65 z m 30.897,-61.793 c 12.188,0 22.069,-9.881 22.069,-22.069 0,-12.188 -9.881,-22.069 -22.069,-22.069 h -66.207 v 44.138 z m -4.414,-79.449 c 9.751,0 17.655,-7.904 17.655,-17.655 0,-9.751 -7.904,-17.655 -17.655,-17.655 h -61.793 v 35.31 z"
   id="path773" />
	</g>
</g><g
     id="g779">
</g><g
     id="g781">
</g><g
     id="g783">
</g><g
     id="g785">
</g><g
     id="g787">
</g><g
     id="g789">
</g><g
     id="g791">
</g><g
     id="g793">
</g><g
     id="g795">
</g><g
     id="g797">
</g><g
     id="g799">
</g><g
     id="g801">
</g><g
     id="g803">
</g><g
     id="g805">
</g><g
     id="g807">
</g></g></svg>