<?xml version="1.0" encoding="iso-8859-1"?>
<!-- Generator: Adobe Illustrator 19.0.0, SVG Export Plug-In . SVG Version: 6.00 Build 0)  -->
<svg version="1.1" id="Capa_1" xmlns="http://www.w3.org/2000/svg" xmlns:xlink="http://www.w3.org/1999/xlink" x="0px" y="0px"
	 viewBox="0 0 512 512" style="enable-background:new 0 0 512 512;" xml:space="preserve">
<path style="fill:#FF9155;" d="M206.256,10v35.727c0,32.149,15.534,62.315,41.703,80.988l63.274,45.147
	c36.664,26.161,58.427,68.425,58.427,113.465v1.405c0,57.051-30.145,109.858-79.271,138.865l0,0
	c-24.837,14.665-53.151,22.401-81.994,22.401h-36.991c-28.806,0-57.085-7.716-81.9-22.345l-0.123-0.073
	c-49.18-28.994-79.365-81.83-79.365-138.92v-1.333c0-45.04,21.764-87.305,58.427-113.465l63.274-45.147
	c26.17-18.673,41.703-48.839,41.703-80.988V10H206.256z"/>
<path style="fill:#FFCDAC;" d="M465.791,169.185c-14.418,24.972-15.88,55.371-3.927,81.613l28.903,63.446
	c16.748,36.764,14.698,79.355-5.501,114.341l-0.63,1.091c-25.587,44.317-72.684,71.817-123.854,72.317l0,0
	c-25.87,0.253-51.333-6.437-73.737-19.372l-25.628-14.796c-22.376-12.919-40.882-31.595-53.597-54.087l-0.063-0.112
	c-25.2-44.578-24.951-99.157,0.653-143.504l0.598-1.035c20.2-34.987,56.059-58.056,96.272-61.935l69.397-6.693
	c28.702-2.768,54.297-19.235,68.715-44.206L465.791,169.185z"/>
<path style="fill:#FFE6C3;" d="M415.036,231.229c-11.542,4.731-23.833,7.821-36.521,9.045l-69.396,6.693
	c-27.288,2.632-51.763,18.378-65.47,42.119l-0.599,1.035c-18.438,31.937-18.62,71.718-0.473,103.821l0.064,0.113
	c9.191,16.259,22.6,29.79,38.774,39.129l25.628,14.795C322.944,457.161,341.017,462,359.368,462c0.342,0,0.68-0.002,1.021-0.005
	c36.845-0.36,71.18-20.408,89.604-52.318l0.623-1.081c13.715-23.753,15.113-52.821,3.748-77.77l-28.903-63.446
	C420.179,255.778,416.709,243.591,415.036,231.229z"/>
<g>
	<path style="fill:#FFFFFF;" d="M277.363,374.199l0.044,0.076c0.019,0.032,0.036,0.064,0.055,0.097
		c5.679,10.045,13.962,18.404,23.955,24.174l25.626,14.794c9.815,5.667,20.992,8.662,32.327,8.662l0.679-0.004
		c22.714-0.222,43.924-12.606,55.307-32.321l0.607-1.054c7.278-12.606,8.021-28.004,2.003-41.215l-28.902-63.446
		c-0.665-1.459-1.309-2.926-1.931-4.401c-1.59,0.198-3.183,0.375-4.779,0.529l-69.395,6.693
		c-14.45,1.394-27.411,9.731-34.669,22.304l-0.613,1.061C266.31,329.83,266.188,354.378,277.363,374.199z"/>
	<path style="fill:#FFFFFF;" d="M333.751,373.466c26.332,14.732,43.818,15.323,51.359-4.575c6.9-18.206-21.288-49.175-21.288-49.175
		s-41.14-7.817-53.045,7.589C297.765,344.141,307.419,358.734,333.751,373.466z"/>
</g>
<path d="M85.984,231.446c2.811-4.754,1.236-10.886-3.518-13.698c-4.754-2.812-10.887-1.237-13.698,3.518
	c-11.566,19.56-17.68,42.233-17.68,65.571v1.054c0,13.191,1.716,26.285,5.101,38.919c1.197,4.468,5.237,7.415,9.653,7.415
	c0.856,0,1.728-0.111,2.594-0.344c5.334-1.429,8.5-6.912,7.071-12.247c-2.933-10.946-4.419-22.3-4.419-33.744v-1.054
	C71.089,267.079,76.24,247.926,85.984,231.446z"/>
<path d="M71.91,363.934c1.878,3.094,5.16,4.797,8.53,4.797c1.76,0,3.543-0.465,5.162-1.439c4.719-2.84,6.241-8.981,3.419-13.711
	c-0.014-0.022-0.052-0.087-0.065-0.108c-2.859-4.709-8.974-6.199-13.692-3.357c-4.719,2.84-6.241,8.981-3.419,13.711
	C71.858,363.849,71.896,363.913,71.91,363.934z"/>
<path d="M499.866,310.099l-28.903-63.446c-10.591-23.251-9.288-50.34,3.487-72.467c2.762-4.783,1.123-10.899-3.66-13.66
	l-22.399-12.933c-2.296-1.325-5.026-1.684-7.588-0.999c-2.562,0.687-4.746,2.362-6.072,4.659
	c-12.775,22.126-35.585,36.8-61.015,39.253l-69.397,6.693c-43.335,4.179-82.204,29.185-103.972,66.888l-0.598,1.035
	c-27.249,47.194-27.517,105.984-0.714,153.395l0.08,0.142c3.838,6.789,8.189,13.243,12.973,19.339h-40.683
	c-26.999,0-53.563-7.248-76.8-20.946l-0.145-0.086c-45.92-27.072-74.445-77.001-74.445-130.306v-1.333
	c0-41.719,20.275-81.093,54.236-105.326l63.273-45.147c28.739-20.505,45.895-53.824,45.895-89.128V20h12.836v25.727
	c0,35.304,17.157,68.623,45.895,89.128l57.064,40.717c4.496,3.209,10.741,2.164,13.948-2.332c3.208-4.496,2.164-10.741-2.332-13.949
	l-57.064-40.717c-23.489-16.76-37.511-43.992-37.511-72.848V10c0-5.523-4.477-10-10-10h-32.836c-5.523,0-10,4.477-10,10v35.727
	c0,28.855-14.023,56.087-37.512,72.848l-63.273,45.147c-39.21,27.978-62.619,73.437-62.619,121.605v1.333
	c0,29.749,7.8,59.126,22.558,84.957c14.757,25.831,36.103,47.469,61.707,62.564l0.145,0.086c22.186,13.08,47.032,20.941,72.588,23.1
	v18.96c0,5.522,4.477,10,10,10s10-4.478,10-10v-18.329h12v43.995c0,5.522,4.477,10,10,10s10-4.478,10-10v-43.995h12v18.329
	c0,5.522,4.477,10,10,10s10-4.478,10-10v-10.034c4.918,3.687,10.052,7.103,15.403,10.193l25.628,14.796
	C305.544,504.849,332.249,512,359.369,512c0.502,0,1.006-0.002,1.509-0.008c54.45-0.531,105.189-30.157,132.417-77.318l0.628-1.089
	C515.694,395.882,517.915,349.718,499.866,310.099z M476.604,423.588l-0.628,1.089c-23.706,41.059-67.883,66.853-115.291,67.317
	c-24.075,0.2-47.799-6.001-68.64-18.033l-25.628-14.796c-20.812-12.017-38.064-29.427-49.875-50.318l-0.079-0.142
	c-23.35-41.306-23.117-92.492,0.607-133.583l0.598-1.035c18.544-32.119,51.654-53.419,88.572-56.98l69.397-6.693
	c28.509-2.75,54.386-17.763,70.976-40.753l5.958,3.44c-11.617,25.863-11.68,55.78,0.194,81.844l28.903,63.446
	C497.041,352.141,495.149,391.467,476.604,423.588z"/>
<path d="M445.283,335.009c0.007,0.016,0.039,0.085,0.046,0.101c1.681,3.659,5.286,5.805,9.062,5.805
	c1.394,0,2.812-0.292,4.165-0.909c5.015-2.289,7.22-8.232,4.943-13.254c-0.007-0.016-0.039-0.085-0.046-0.101
	c-2.302-5.01-8.21-7.187-13.227-4.896C445.211,324.045,443.007,329.987,445.283,335.009z"/>
<path d="M462.578,365.558c-5.492-0.618-10.434,3.344-11.044,8.833c-1.154,10.374-4.376,20.2-9.58,29.213l-0.619,1.074
	c-16.665,28.862-47.717,46.993-81.03,47.318l-0.936,0.005c-16.594,0-32.959-4.385-47.326-12.681l-25.627-14.795
	c-14.63-8.447-26.757-20.686-35.084-35.415l-0.051-0.089c-16.413-29.035-16.25-65.016,0.424-93.895l0.602-1.041
	c12.095-20.95,33.691-34.844,57.769-37.166l69.396-6.693c9.453-0.911,18.771-2.789,27.827-5.602
	c2.092,9.248,5.125,18.256,9.062,26.899l9.464,20.775c2.29,5.025,8.221,7.245,13.246,4.955c5.026-2.29,7.244-8.22,4.955-13.246
	l-9.463-20.775c-4.819-10.579-8.055-21.798-9.618-33.346c-0.415-3.068-2.228-5.771-4.91-7.319s-5.929-1.767-8.793-0.593
	c-10.784,4.421-22.119,7.229-33.689,8.344l-69.396,6.693c-30.498,2.941-57.851,20.539-73.166,47.067l-0.602,1.041
	c-20.201,34.988-20.399,78.571-0.504,113.766l0.051,0.089c10.07,17.813,24.759,32.637,42.48,42.868l25.627,14.795
	c17.403,10.049,37.226,15.36,57.326,15.36l1.119-0.005c40.366-0.396,77.981-22.358,98.171-57.325l0.619-1.074
	c6.589-11.411,10.671-23.858,12.132-36.994C472.021,371.113,468.067,366.168,462.578,365.558z"/>
<path d="M296.417,407.205l25.625,14.794c11.333,6.543,24.241,10.002,37.384,10.002l0.719-0.004
	c26.253-0.257,50.726-14.558,63.873-37.326l0.604-1.048c8.885-15.389,9.798-34.216,2.443-50.36l-28.903-63.448
	c-0.624-1.37-1.235-2.762-1.815-4.139c-1.739-4.126-6.011-6.588-10.452-6.038c-1.498,0.187-2.999,0.354-4.502,0.498l-69.395,6.693
	c-17.661,1.703-33.5,11.894-42.365,27.252l-0.617,1.066c-13.127,22.736-13.267,51.077-0.363,73.964
	c0.016,0.028,0.033,0.058,0.049,0.086l0.056,0.097C275.314,390.892,284.879,400.544,296.417,407.205z M286.332,315.152l0.617-1.066
	c5.646-9.78,15.727-16.266,26.968-17.35l67.031-6.466l27.917,61.282c4.682,10.277,4.097,22.267-1.566,32.076l-0.604,1.048
	c-9.622,16.665-27.534,27.135-46.704,27.321L359.369,412c-9.581,0-19.03-2.532-27.328-7.322l-25.625-14.794
	c-8.447-4.877-15.449-11.943-20.26-20.452c-0.02-0.036-0.067-0.12-0.088-0.155l-0.018-0.031
	C276.627,352.499,276.736,331.773,286.332,315.152z"/>
<path d="M328.868,382.193L328.868,382.193c14.44,8.078,26.201,12.03,36.091,12.03c3.922,0,7.55-0.621,10.933-1.854
	c8.479-3.087,14.727-9.795,18.57-19.936c8.637-22.788-17.847-53.52-23.243-59.449c-1.459-1.604-3.399-2.689-5.529-3.094
	c-7.876-1.496-47.922-7.984-62.824,11.299c-6.631,8.581-9.078,17.415-7.273,26.256C298.128,359.87,308.702,370.911,328.868,382.193z
	 M318.689,333.418c3.177-4.111,12.824-5.684,23.217-5.684c5.668,0,11.56,0.469,16.741,1.247
	c9.571,11.337,19.972,28.819,17.112,36.365c-2.544,6.714-5.68,7.855-6.711,8.231c-4.041,1.467-12.595,1.131-30.415-8.839v-0.001
	c-17.82-9.969-22.586-17.082-23.446-21.294C314.967,342.369,314.3,339.099,318.689,333.418z"/>
<g>
</g>
<g>
</g>
<g>
</g>
<g>
</g>
<g>
</g>
<g>
</g>
<g>
</g>
<g>
</g>
<g>
</g>
<g>
</g>
<g>
</g>
<g>
</g>
<g>
</g>
<g>
</g>
<g>
</g>
</svg>
