<?xml version="1.0" encoding="iso-8859-1"?>
<!-- Generator: Adobe Illustrator 19.0.0, SVG Export Plug-In . SVG Version: 6.00 Build 0)  -->
<svg version="1.1" id="Capa_1" xmlns="http://www.w3.org/2000/svg" xmlns:xlink="http://www.w3.org/1999/xlink" x="0px" y="0px"
	 viewBox="0 0 480 480" style="enable-background:new 0 0 480 480;" xml:space="preserve">
<g>
	<polygon style="fill:#FF9F1C;" points="8,96 56,96 56,432 104,432 104,96 152,96 152,48 8,48 	"/>
	<path style="fill:#FF9F1C;" d="M472,208c-44.184,0-80,35.816-80,80v144h48V288c0-17.672,14.328-32,32-32V208z"/>
</g>
<g>
	<path style="fill:#60C4C2;" d="M310.592,150.592c21.832-21.832,16.944-62.12,16.944-62.12s-40.288-4.888-62.12,16.944
		s-16.944,62.12-16.944,62.12S288.76,172.424,310.592,150.592z"/>
	<path style="fill:#60C4C2;" d="M247.72,135.72c0,0,2.936-24.176-10.168-37.272C224.456,85.352,200.28,88.28,200.28,88.28
		s-2.936,24.176,10.168,37.272S247.72,135.72,247.72,135.72z"/>
</g>
<path style="fill:#CBF3F0;" d="M136,320c0,61.856,50.144,112,112,112c-48.6,0-88-42.984-88-96s39.4-96,88-96l0.464-71.768L216,152
	v60.752C169.752,226.536,136,269.28,136,320z"/>
<path style="fill:#FF9F1C;" d="M248,272v32v128c61.856,0,112-50.144,112-112c0-50.72-33.752-93.464-80-107.248V184l-31.536-15.768
	L248,240V272z M327.608,328c0.264-2.632,0.392-5.304,0.392-8c0-2.704-0.136-5.368-0.392-8c0.264,2.632,0.392,5.296,0.392,8
	C328,322.696,327.864,325.368,327.608,328c-0.272,2.712-0.672,5.376-1.208,8C326.936,333.376,327.336,330.712,327.608,328z
	 M321.344,352c-8.064,18.456-22.888,33.28-41.344,41.344C298.456,385.28,313.28,370.456,321.344,352z"/>
<path style="fill:#60C4C2;" d="M184,352c0-44.184,28.656-80,64-80v-32c-48.6,0-88,42.984-88,96s39.4,96,88,96
	C212.656,432,184,396.184,184,352z"/>
<path style="fill:#CBF3F0;" d="M208,368c0-35.344,17.912-64,40-64v-32c-35.344,0-64,35.816-64,80s28.656,80,64,80
	C225.912,432,208,403.344,208,368z"/>
<path style="fill:#60C4C2;" d="M208,368c0,35.344,17.912,64,40,64V304C225.912,304,208,332.656,208,368z"/>
<g>
	<path style="fill:#3F3F3F;" d="M8,104h40v328c0,4.416,3.576,8,8,8h48c4.424,0,8-3.584,8-8V104h40c4.424,0,8-3.584,8-8V48
		c0-4.416-3.576-8-8-8H8c-4.424,0-8,3.584-8,8v48C0,100.416,3.576,104,8,104z M16,56h128v32h-40c-4.424,0-8,3.584-8,8v328H64V96
		c0-4.416-3.576-8-8-8H16V56z"/>
	<path style="fill:#3F3F3F;" d="M472,200c-48.52,0-88,39.48-88,88v144c0,4.416,3.576,8,8,8h48c4.424,0,8-3.584,8-8V288
		c0-13.232,10.768-24,24-24c4.424,0,8-3.584,8-8v-48C480,203.584,476.424,200,472,200z M464,248.808
		c-18.232,3.712-32,19.88-32,39.192v136h-32V288c0-37,28.048-67.568,64-71.56V248.808z"/>
	<path style="fill:#3F3F3F;" d="M219.576,144.84c-2.48-1.232-5.424-1.104-7.784,0.352S208,149.224,208,152v54.952
		c-47.392,16.792-80,62.432-80,113.048c0,66.168,53.832,120,120,120s120-53.832,120-120c0-50.616-32.608-96.256-80-113.048V184
		c0-3.032-1.712-5.8-4.424-7.16l-5.12-2.56c12.776-2.272,27.064-7.312,37.792-18.04c24.304-24.304,19.448-66.936,19.224-68.744
		c-0.448-3.656-3.328-6.536-6.984-6.976c-1.808-0.232-44.44-5.088-68.736,19.224c-2.728,2.728-5.04,5.712-7.08,8.816
		c-1.92-5.616-4.872-11.184-9.464-15.784c-15.672-15.672-42.744-12.592-43.888-12.448c-3.656,0.44-6.536,3.328-6.984,6.976
		c-0.136,1.144-3.224,28.216,12.456,43.896c10.664,10.664,26.544,12.624,36,12.76c-0.472,4.04-0.688,7.784-0.76,11.104
		L219.576,144.84z M216.104,119.896c-6.088-6.08-7.832-16.44-8.088-23.856c6.904,0.208,17.488,1.664,23.88,8.064
		c6.088,6.088,7.832,16.448,8.088,23.856C233.08,127.752,222.504,126.296,216.104,119.896z M271.072,111.064
		c13.888-13.896,37.56-15.288,48.888-15.032c0.24,11.44-1.136,35-15.024,48.896c-13.912,13.904-37.464,15.248-48.92,15.032
		C255.76,148.552,257.104,125.032,271.072,111.064z M216,368c0-25.544,10.376-47.752,24-54.152v108.296
		C226.376,415.752,216,393.544,216,368z M200,368c0,9.872,1.28,19.208,3.576,27.704C196.336,383.576,192,368.44,192,352
		c0-36.208,20.896-66.264,48-71.264v16.304C217.032,302.608,200,331.736,200,368z M240,264.576c-35.944,4.88-64,42.208-64,87.424
		c0,11.248,1.8,21.968,4.96,31.872C172.792,370.072,168,353.656,168,336c0-45.552,31.632-83.136,72-87.56V264.576z M218.28,220.424
		c3.392-1.008,5.72-4.128,5.72-7.664v-47.816l16.432,8.216l-0.384,59.272C190.824,236.84,152,281.56,152,336
		c0,12.64,2.2,24.712,6.024,35.928C149.16,356.624,144,338.92,144,320C144,274.4,174.544,233.456,218.28,220.424z M352,320
		c0,54.648-42.392,99.48-96,103.592V304v-32v-31.952l0.384-58.912L272,188.944v23.816c0,3.536,2.328,6.656,5.72,7.664
		C321.456,233.456,352,274.4,352,320z"/>
	<path style="fill:#3F3F3F;" d="M283.2,400.672c20.408-8.92,36.552-25.072,45.472-45.472l-14.656-6.4
		c-7.296,16.696-20.512,29.912-37.216,37.216L283.2,400.672z"/>
	<path style="fill:#3F3F3F;" d="M335.56,328.808c0.288-2.904,0.44-5.84,0.44-8.808s-0.152-5.904-0.44-8.808l-15.92,1.608
		c0.24,2.368,0.36,4.768,0.36,7.2s-0.12,4.832-0.36,7.216c-0.24,2.432-0.6,4.832-1.088,7.192l15.688,3.176
		C334.824,334.704,335.272,331.76,335.56,328.808z"/>
</g>
<g>
</g>
<g>
</g>
<g>
</g>
<g>
</g>
<g>
</g>
<g>
</g>
<g>
</g>
<g>
</g>
<g>
</g>
<g>
</g>
<g>
</g>
<g>
</g>
<g>
</g>
<g>
</g>
<g>
</g>
</svg>
