<?xml version="1.0" encoding="iso-8859-1"?>
<!-- Generator: Adobe Illustrator 19.0.0, SVG Export Plug-In . SVG Version: 6.00 Build 0)  -->
<svg version="1.1" id="Capa_1" xmlns="http://www.w3.org/2000/svg" xmlns:xlink="http://www.w3.org/1999/xlink" x="0px" y="0px"
	 viewBox="0 0 512.001 512.001" style="enable-background:new 0 0 512.001 512.001;" xml:space="preserve">
<path style="fill:#707487;" d="M255.146,24.224c-35.527,0-64.326,28.8-64.326,64.327v26.01c4.299-3.985,10.416-6.151,16.386-5.353
	v-3.205c0-2.548,2.176-4.561,4.698-4.37c24.871,1.787,50.181-6.116,69.319-18.618c1.786-1.167,4.152-0.877,5.604,0.683
	c16.361,17.587,16.263,16.906,16.263,19.202v6.294c6.544-0.981,12.35,1.041,16.383,4.791V88.551
	C319.473,53.023,290.675,24.224,255.146,24.224z"/>
<path style="fill:#5B5D6E;" d="M211.049,88.551c0-32.085,23.491-58.677,54.212-63.529c-3.295-0.521-6.672-0.798-10.115-0.798
	c-35.527,0-64.327,28.8-64.327,64.327v26.01c4.299-3.985,10.416-6.151,16.386-5.353v-3.205c0-2.254,1.703-4.082,3.842-4.343V88.551
	H211.049z"/>
<path style="fill:#F0A479;" d="M303.004,106.864v35.375c0,0.383-0.02,0.762-0.029,1.144c12.519,1.895,22.323-7.149,22.323-18.258
	C325.298,113.994,315.485,104.993,303.004,106.864z"/>
<path style="fill:#E59770;" d="M319.502,111.72c-4.051-3.795-9.902-5.845-16.498-4.856v35.375c0,0.383-0.02,0.762-0.029,1.144
	c6.616,1.002,12.474-1.054,16.528-4.855V111.72H319.502z"/>
<path style="fill:#F0A479;" d="M207.35,142.282v-35.451c-10.927-1.459-22.351,6.926-22.351,18.294
	c0,11.123,9.808,20.207,22.378,18.304C207.368,143.046,207.35,142.665,207.35,142.282z"/>
<path style="fill:#E59770;" d="M207.35,136.782c-2.619-3.204-4.15-7.27-4.15-11.657c0-4.239,1.59-8.063,4.15-11.118v-7.176
	c-10.927-1.459-22.351,6.926-22.351,18.294c0,11.123,9.808,20.207,22.378,18.304c-0.009-0.383-0.028-0.764-0.028-1.147v-5.5H207.35z
	"/>
<path style="fill:#F0A479;" d="M255.832,187.172c-10.393,0-19.525-2.853-26.995-7.625V205.9l26.88,33.178l26.879-33.178v-27.066
	C274.981,184.087,265.761,187.172,255.832,187.172z"/>
<path style="fill:#E59770;" d="M248.838,186.72c-7.527-0.976-14.258-3.504-20.001-7.173V205.9l20.001,24.688V186.72z"/>
<path style="fill:#E4EAF8;" d="M353.703,231.18l-71.107-27.539l-26.879,33.178l-26.88-33.178l-71.033,27.539
	c0,0-26.3,10.812-26.3,40.793c0,27.129,0,95.703,0,117.619c0,4.839,3.924,8.764,8.764,8.764c3.688,0,227.227,0,230.972,0
	c4.84,0,8.764-3.924,8.764-8.764c0-21.916,0-90.49,0-117.619C380.003,241.991,353.703,231.18,353.703,231.18z"/>
<path style="fill:#D8DCE5;" d="M151.505,389.592c0-21.916,0-100.491,0-127.62c0-17.777,9.246-28.814,16.774-34.854l-10.475,4.061
	c0,0-26.301,10.812-26.301,40.793c0,27.129,0,95.704,0,117.619c0,4.839,3.924,8.764,8.764,8.764c0.649,0,8.12,0,20.001,0
	C155.429,398.357,151.505,394.432,151.505,389.592z"/>
<path style="fill:#F0A479;" d="M286.827,81.438c-1.452-1.56-3.818-1.851-5.604-0.683c-19.137,12.502-44.448,20.404-69.319,18.618
	c-2.522-0.191-4.698,1.821-4.698,4.37v38.429c0,24.699,19.353,47.258,48.626,47.258c26.059,0,47.258-21.2,47.258-47.258v-41.532
	C303.09,98.344,303.188,99.025,286.827,81.438z"/>
<path style="fill:#E59770;" d="M227.24,142.173V99.285c-5.092,0.407-10.223,0.456-15.335,0.088c-2.522-0.191-4.698,1.822-4.698,4.37
	v38.429c0,24.699,19.352,47.257,48.626,47.257c3.194,0,6.314-0.323,9.334-0.93C243.562,184.156,227.24,165.035,227.24,142.173z"/>
<g>
	<path style="fill:#D8DCE5;" d="M288.171,253.868l20.1-40.282l-25.676-9.944l-26.879,33.178l26.207,18.612
		C284.044,256.938,287.008,256.196,288.171,253.868z"/>
	<path style="fill:#D8DCE5;" d="M223.299,253.868l-20.1-40.282l25.676-9.944l26.879,33.178l-26.207,18.612
		C227.426,256.938,224.461,256.196,223.299,253.868z"/>
</g>
<path style="fill:#FF5050;" d="M283.053,365.814l-17.251-102.09h-10.051h-0.032h-10.051l-17.251,102.09
	c-0.181,1.315,0.204,2.651,1.027,3.557l0,0l0,0l23.817,26.244c1.327,1.462,3.622,1.462,4.949,0l23.817-26.244l0,0l0,0
	C282.849,368.465,283.234,367.129,283.053,365.814z"/>
<g>
	<path style="fill:#ED3A3A;" d="M249.477,369.371c-0.823-0.906-1.208-2.242-1.027-3.557l17.251-102.09h-9.951h-0.032h-10.051
		l-17.251,102.09c-0.181,1.315,0.204,2.651,1.027,3.557l23.817,26.244c1.327,1.462,3.622,1.462,4.949,0l7.542-8.312L249.477,369.371
		z"/>
	<polygon style="fill:#ED3A3A;" points="255.751,236.843 255.751,236.82 255.734,236.831 255.718,236.82 255.718,236.843 
		236.658,250.38 245.668,263.939 255.718,263.939 255.751,263.939 265.802,263.939 274.812,250.38 	"/>
</g>
<path style="fill:#DB2A2A;" d="M265.735,243.933l-9.985-7.091v-0.023l-0.016,0.011l-0.016-0.011v0.023l-19.06,13.537l9.01,13.56
	h10.051h0.032h9.918l-7.734-11.641c-0.711-1.07-0.443-2.51,0.604-3.254L265.735,243.933z"/>
<path style="fill:#707487;" d="M379.396,114.644c-35.527,0-64.326,28.8-64.326,64.327v26.01c4.299-3.985,10.416-6.151,16.386-5.353
	v-3.205c0-2.548,2.176-4.561,4.698-4.37c24.87,1.787,50.181-6.116,69.319-18.618c1.786-1.167,4.152-0.877,5.604,0.683
	c16.361,17.587,16.263,16.906,16.263,19.202v6.294c6.544-0.981,12.35,1.041,16.383,4.791v-25.434
	C443.723,143.444,414.924,114.644,379.396,114.644z"/>
<path style="fill:#5B5D6E;" d="M335.298,178.971c0-32.085,23.491-58.677,54.212-63.529c-3.295-0.521-6.672-0.798-10.115-0.798
	c-35.527,0-64.327,28.8-64.327,64.327v26.01c4.299-3.985,10.416-6.151,16.386-5.353v-3.205c0-2.254,1.703-4.082,3.842-4.343v-13.108
	H335.298z"/>
<path style="fill:#F0A479;" d="M427.254,197.285v35.375c0,0.383-0.02,0.762-0.029,1.144c12.519,1.895,22.323-7.149,22.323-18.258
	C449.547,204.416,439.735,195.414,427.254,197.285z"/>
<path style="fill:#E59770;" d="M443.752,202.142c-4.051-3.795-9.902-5.845-16.498-4.856v35.375c0,0.383-0.02,0.762-0.029,1.144
	c6.616,1.002,12.474-1.054,16.528-4.855v-26.808H443.752z"/>
<path style="fill:#F0A479;" d="M331.599,232.704v-35.451c-10.927-1.459-22.351,6.926-22.351,18.294
	c0,11.123,9.808,20.207,22.378,18.304C331.617,233.468,331.599,233.087,331.599,232.704z"/>
<path style="fill:#E59770;" d="M331.599,227.202c-2.619-3.204-4.15-7.27-4.15-11.657c0-4.239,1.59-8.063,4.15-11.118v-7.176
	c-10.927-1.459-22.351,6.926-22.351,18.294c0,11.123,9.808,20.207,22.378,18.304c-0.009-0.383-0.028-0.764-0.028-1.147v-5.5H331.599
	z"/>
<path style="fill:#F0A479;" d="M380.082,277.592c-10.393,0-19.525-2.853-26.995-7.625v26.354l26.88,33.178l26.879-33.178v-27.066
	C399.23,274.507,390.012,277.592,380.082,277.592z"/>
<path style="fill:#E59770;" d="M373.088,277.14c-7.527-0.976-14.258-3.504-20.001-7.173v26.354l20.001,24.689V277.14z"/>
<path style="fill:#E4EAF8;" d="M477.953,321.6l-71.107-27.539l-26.879,33.178l-26.88-33.178L282.054,321.6
	c0,0-26.3,10.812-26.3,40.793c0,27.129,0,95.703,0,117.619c0,4.839,3.924,8.764,8.764,8.764c3.688,0,227.227,0,230.972,0
	c4.84,0,8.764-3.924,8.764-8.764c0-21.916,0-90.49,0-117.619C504.253,332.413,477.953,321.6,477.953,321.6z"/>
<path style="fill:#D8DCE5;" d="M275.755,480.014c0-21.916,0-100.491,0-127.62c0-17.777,9.246-28.814,16.774-34.854l-10.475,4.061
	c0,0-26.301,10.812-26.301,40.793c0,27.129,0,95.704,0,117.619c0,4.839,3.924,8.764,8.764,8.764c0.649,0,8.12,0,20.001,0
	C279.679,488.777,275.755,484.853,275.755,480.014z"/>
<path style="fill:#F0A479;" d="M411.077,171.859c-1.452-1.56-3.818-1.851-5.604-0.683c-19.137,12.502-44.448,20.404-69.319,18.618
	c-2.522-0.191-4.698,1.821-4.698,4.37v38.429c0,24.698,19.353,47.258,48.626,47.258c26.059,0,47.258-21.2,47.258-47.258v-41.532
	C427.34,188.766,427.439,189.446,411.077,171.859z"/>
<path style="fill:#E59770;" d="M351.489,232.594v-42.888c-5.092,0.407-10.223,0.456-15.335,0.088
	c-2.522-0.191-4.698,1.822-4.698,4.37v38.429c0,24.698,19.352,47.257,48.626,47.257c3.194,0,6.314-0.323,9.334-0.93
	C367.811,274.576,351.489,255.457,351.489,232.594z"/>
<g>
	<path style="fill:#D8DCE5;" d="M412.421,344.288l20.1-40.282l-25.676-9.944l-26.879,33.178l26.207,18.612
		C408.294,347.359,411.259,346.617,412.421,344.288z"/>
	<path style="fill:#D8DCE5;" d="M347.548,344.288l-20.1-40.282l25.676-9.944l26.879,33.178l-26.207,18.612
		C351.675,347.359,348.71,346.617,347.548,344.288z"/>
</g>
<path style="fill:#FF5050;" d="M407.303,456.235l-17.251-102.09h-10.051h-0.032h-10.051l-17.251,102.09
	c-0.181,1.315,0.204,2.651,1.027,3.557l0,0l0,0l23.817,26.244c1.327,1.462,3.622,1.462,4.949,0l23.817-26.244l0,0l0,0
	C407.099,458.885,407.484,457.55,407.303,456.235z"/>
<g>
	<path style="fill:#ED3A3A;" d="M373.728,459.792c-0.823-0.906-1.208-2.242-1.027-3.557l17.251-102.09h-9.951h-0.032h-10.051
		l-17.251,102.09c-0.181,1.315,0.204,2.651,1.027,3.557l23.817,26.244c1.327,1.462,3.622,1.462,4.949,0l7.542-8.311L373.728,459.792
		z"/>
	<polygon style="fill:#ED3A3A;" points="380.001,327.263 380.001,327.24 379.984,327.251 379.968,327.24 379.968,327.263 
		360.908,340.8 369.917,354.36 379.968,354.36 380.001,354.36 390.052,354.36 399.061,340.8 	"/>
</g>
<path style="fill:#DB2A2A;" d="M389.985,334.354L380,327.262v-0.023l-0.016,0.011l-0.016-0.011v0.023l-19.06,13.537l9.01,13.56
	h10.051H380h9.918l-7.734-11.641c-0.711-1.07-0.443-2.51,0.604-3.254L389.985,334.354z"/>
<path style="fill:#707487;" d="M130.897,114.644c-35.527,0-64.326,28.8-64.326,64.327v26.01c4.299-3.985,10.416-6.151,16.386-5.353
	v-3.205c0-2.548,2.176-4.561,4.698-4.37c24.871,1.787,50.181-6.116,69.319-18.618c1.787-1.167,4.152-0.877,5.604,0.683
	c16.361,17.587,16.263,16.906,16.263,19.202v6.294c6.544-0.981,12.35,1.041,16.383,4.791v-25.434
	C195.223,143.444,166.425,114.644,130.897,114.644z"/>
<path style="fill:#5B5D6E;" d="M86.798,178.971c0-32.085,23.491-58.677,54.212-63.529c-3.295-0.521-6.672-0.798-10.115-0.798
	c-35.527,0-64.327,28.8-64.327,64.327v26.01c4.299-3.985,10.416-6.151,16.386-5.353v-3.205c0-2.254,1.703-4.082,3.842-4.343
	L86.798,178.971L86.798,178.971z"/>
<path style="fill:#F0A479;" d="M178.754,197.285v35.375c0,0.383-0.02,0.762-0.029,1.144c12.519,1.895,22.323-7.149,22.323-18.258
	C201.048,204.416,191.235,195.414,178.754,197.285z"/>
<path style="fill:#E59770;" d="M195.253,202.142c-4.051-3.795-9.902-5.845-16.498-4.856v35.375c0,0.383-0.02,0.762-0.029,1.144
	c6.616,1.002,12.474-1.054,16.528-4.855v-26.808H195.253z"/>
<path style="fill:#F0A479;" d="M83.099,232.704v-35.451c-10.927-1.459-22.351,6.926-22.351,18.294
	c0,11.123,9.808,20.207,22.378,18.304C83.118,233.468,83.099,233.087,83.099,232.704z"/>
<path style="fill:#E59770;" d="M83.099,227.202c-2.619-3.204-4.15-7.27-4.15-11.657c0-4.239,1.59-8.063,4.15-11.118v-7.176
	c-10.927-1.459-22.351,6.926-22.351,18.294c0,11.123,9.808,20.207,22.378,18.304c-0.009-0.383-0.028-0.764-0.028-1.147
	L83.099,227.202L83.099,227.202z"/>
<path style="fill:#F0A479;" d="M131.582,277.592c-10.393,0-19.525-2.853-26.995-7.625v26.354l26.88,33.178l26.879-33.178v-27.066
	C150.731,274.507,141.512,277.592,131.582,277.592z"/>
<path style="fill:#E59770;" d="M124.589,277.14c-7.527-0.976-14.258-3.504-20.001-7.173v26.354l20.001,24.689V277.14z"/>
<path style="fill:#E4EAF8;" d="M229.453,321.6l-71.107-27.539l-26.879,33.178l-26.88-33.178L33.554,321.6
	c0,0-26.3,10.812-26.3,40.793c0,27.129,0,95.703,0,117.619c0,4.839,3.924,8.764,8.764,8.764c3.688,0,227.227,0,230.972,0
	c4.84,0,8.764-3.924,8.764-8.764c0-21.916,0-90.49,0-117.619C255.753,332.413,229.453,321.6,229.453,321.6z"/>
<path style="fill:#D8DCE5;" d="M27.256,480.014c0-21.916,0-100.491,0-127.62c0-17.777,9.246-28.814,16.774-34.854l-10.475,4.061
	c0,0-26.301,10.812-26.301,40.793c0,27.129,0,95.704,0,117.619c0,4.839,3.924,8.764,8.764,8.764c0.649,0,8.12,0,20.001,0
	C31.179,488.777,27.256,484.853,27.256,480.014z"/>
<path style="fill:#F0A479;" d="M162.578,171.859c-1.452-1.56-3.818-1.851-5.604-0.683c-19.137,12.502-44.448,20.404-69.319,18.618
	c-2.522-0.191-4.698,1.821-4.698,4.37v38.429c0,24.698,19.353,47.258,48.626,47.258c26.059,0,47.258-21.2,47.258-47.258v-41.532
	C178.84,188.766,178.939,189.446,162.578,171.859z"/>
<path style="fill:#E59770;" d="M102.99,232.594v-42.888c-5.092,0.407-10.223,0.456-15.335,0.088
	c-2.522-0.191-4.698,1.822-4.698,4.37v38.429c0,24.698,19.352,47.257,48.626,47.257c3.194,0,6.314-0.323,9.334-0.93
	C119.312,274.576,102.99,255.457,102.99,232.594z"/>
<g>
	<path style="fill:#D8DCE5;" d="M163.921,344.288l20.1-40.282l-25.676-9.944l-26.879,33.178l26.207,18.612
		C159.794,347.359,162.759,346.617,163.921,344.288z"/>
	<path style="fill:#D8DCE5;" d="M99.049,344.288l-20.1-40.282l25.676-9.944l26.879,33.178l-26.207,18.612
		C103.176,347.359,100.211,346.617,99.049,344.288z"/>
</g>
<path style="fill:#FF5050;" d="M158.804,456.235l-17.251-102.09h-10.051h-0.032h-10.051l-17.251,102.09
	c-0.181,1.315,0.204,2.651,1.027,3.557l0,0l0,0l23.817,26.244c1.327,1.462,3.622,1.462,4.949,0l23.817-26.244l0,0l0,0
	C158.599,458.885,158.985,457.55,158.804,456.235z"/>
<g>
	<path style="fill:#ED3A3A;" d="M125.228,459.792c-0.823-0.906-1.208-2.242-1.027-3.557l17.251-102.09h-9.951h-0.032h-10.051
		l-17.251,102.09c-0.181,1.315,0.204,2.651,1.027,3.557l23.817,26.244c1.327,1.462,3.622,1.462,4.949,0l7.542-8.311L125.228,459.792
		z"/>
	<polygon style="fill:#ED3A3A;" points="131.501,327.263 131.501,327.24 131.485,327.251 131.469,327.24 131.469,327.263 
		112.409,340.8 121.418,354.36 131.469,354.36 131.501,354.36 141.553,354.36 150.562,340.8 	"/>
</g>
<path style="fill:#DB2A2A;" d="M141.486,334.354l-9.985-7.091v-0.023l-0.016,0.011l-0.016-0.011v0.023l-19.06,13.537l9.01,13.56
	h10.051h0.032h9.918l-7.734-11.641c-0.711-1.07-0.443-2.51,0.604-3.254L141.486,334.354z"/>
<path d="M504.5,401.899c4.143,0,7.5-3.358,7.5-7.5v-32.504c0-34.61-29.685-47.211-30.948-47.731
	c-0.048-0.02-0.095-0.039-0.143-0.057l-66.317-25.684v-13.66c10.352-8.329,17.622-20.331,19.805-34.014
	c5.163-0.648,9.953-2.715,13.928-6.134c5.7-4.902,8.971-12.035,8.971-19.568c0-6.013-2.087-11.767-5.824-16.337v-20.238
	c0-39.606-32.222-71.827-71.826-71.827c-17.781,0-34.061,6.508-46.618,17.25c-0.162-5.747-2.219-11.223-5.804-15.607V88.051
	c0-39.606-32.222-71.827-71.826-71.827c-39.606,0-71.827,32.222-71.827,71.827v20.765c-3.605,4.308-5.622,9.502-5.8,15.015
	c-8.011-6.847-17.601-12.002-28.288-14.816c-4.012-1.056-8.108,1.337-9.164,5.343c-1.055,4.006,1.337,8.108,5.343,9.164
	c24.913,6.56,42.313,29.157,42.313,54.949v11.217c-0.324-0.067-1.364-0.246-1.404-0.252c-0.102-2.117-0.638-3.41-1.792-5.07
	c-1.92-2.759-5.368-6.196-16.458-18.116c-3.952-4.245-10.344-5.024-15.196-1.852c-18.995,12.408-42.072,18.732-63.488,17.475
	c-6.976-0.409-11.333,2.656-13.19,7.679c-0.166,0.027-2.021,0.401-2.124,0.426v-11.507c0-24.869,16.618-47.242,40.411-54.409
	c3.966-1.194,6.213-5.378,5.019-9.345c-1.195-3.967-5.385-6.214-9.346-5.018c-14.47,4.358-27.477,13.432-36.622,25.548
	c-9.463,12.534-14.464,27.481-14.464,43.225v20.766c-3.778,4.514-5.821,10-5.821,15.809c0,12.84,9.46,24.038,22.938,25.708
	c2.208,13.363,9.458,26.178,20.9,34.891v12.781l-66.243,25.682c-0.047,0.018-0.094,0.037-0.141,0.056
	C29.686,314.684,0,327.284,0,361.894v117.619c0,8.969,7.296,16.264,16.265,16.264h230.971c3.228,0,6.231-0.957,8.765-2.585
	c2.532,1.628,5.536,2.585,8.765,2.585h230.972c8.968,0,16.264-7.295,16.264-16.264v-50.113c0-4.142-3.357-7.5-7.5-7.5
	s-7.5,3.358-7.5,7.5v50.113c0,0.696-0.566,1.263-1.263,1.263H467.24V371.199c0-4.142-3.357-7.5-7.5-7.5s-7.5,3.358-7.5,7.5v109.578
	H397.17l14.905-16.397c2.302-2.533,3.387-6.13,2.904-9.623c-0.011-0.075-0.022-0.149-0.035-0.224l-16.755-98.996l3.083-4.641
	l0.803,0.57c2.749,1.953,6.255,2.665,9.647,1.818c3.331-0.833,6.122-3.074,7.656-6.146v-0.001l17.049-34.171l38.945,15.083
	c1.537,0.668,21.625,9.879,21.625,33.845v32.504C496.999,398.541,500.356,401.899,504.5,401.899z M352.806,337.031l-14.723-29.505
	l12.871-4.985l18.412,22.726C361.316,330.987,353.223,336.735,352.806,337.031z M173.879,307.526l-14.722,29.505l-3.994-2.836
	c-0.004-0.003-0.008-0.007-0.012-0.01l-12.579-8.934l18.407-22.721L173.879,307.526z M104.307,337.031l-14.723-29.505l12.871-4.985
	l18.412,22.726l-12.556,8.918c-0.007,0.005-0.012,0.01-0.019,0.015L104.307,337.031z M193.746,214.393
	c0.336,4.838-2.637,9.213-7.158,10.855v-20.393C190.784,206.382,193.479,210.043,193.746,214.393z M283.354,87.949
	c6.763,7.252,10.787,11.465,12.482,13.421c0,18.673,0,25.884,0,40.302c0,21.953-17.908,39.756-39.757,39.756
	c-24.65,0-41.125-19.105-41.125-39.756V106.54C238.636,107.488,263.239,100.469,283.354,87.949z M318.043,124.625
	c0,3.158-1.367,6.145-3.75,8.195c-1.023,0.88-2.189,1.556-3.456,2.017v-20.403C315.322,116.061,318.043,120.184,318.043,124.625z
	 M345.833,275.645v12.78l-63.764,24.721l-8.129-48.03l3.083-4.641l0.803,0.57c2.804,1.992,6.323,2.65,9.647,1.818
	c3.331-0.833,6.122-3.074,7.656-6.146v-0.001l12.658-25.37c4.349,5.36,10.639,8.62,17.117,9.429
	C327.192,255.115,334.942,267.353,345.833,275.645z M255.999,334.64c-3.107-5.006-7.243-9.638-12.229-13.591l8.481-50.109h7.459
	l8.486,50.135C263.077,325.14,258.995,329.814,255.999,334.64z M166.093,274.769c10.622-8.567,17.667-20.668,19.799-33.995
	c7.074-0.885,13.567-4.613,17.825-10.348l13.118,26.29c0,0,0,0,0.001,0.001c1.533,3.073,4.324,5.313,7.655,6.146
	c3.293,0.823,6.816,0.193,9.647-1.818l0.803-0.57l3.083,4.641l-8.127,48.017l-63.804-24.71L166.093,274.769L166.093,274.769z
	 M256.074,196.43c0.001,0,0.003,0,0.004,0l0,0h0.001c6.598,0,13.289-1.251,19.262-3.498v7.551l-19.36,23.897l-19.397-23.943v-7.195
	C242.864,195.413,249.648,196.428,256.074,196.43z M324.202,225.248c-4.41-1.59-7.206-5.668-7.206-10.203
	c0-4.413,3.198-8.037,7.206-9.76V225.248z M283.407,246.61l-3.994-2.836c-0.004-0.003-0.008-0.007-0.012-0.01l-12.579-8.935
	l6.42-7.925l11.987-14.796l12.899,4.995L283.407,246.61z M262.027,255.939h-12.091l-2.759-4.153l8.805-6.253l8.805,6.253
	L262.027,255.939z M228.557,246.61l-14.723-29.505l12.871-4.985l18.412,22.726l-12.556,8.918c-0.007,0.005-0.012,0.01-0.019,0.015
	L228.557,246.61z M307.816,178.471v20.765c-1.153,1.377-2.145,2.844-2.966,4.383l-14.508-5.618v-13.66
	c10.352-8.329,17.622-20.331,19.805-34.014c1.272-0.16,2.526-0.388,3.745-0.721C309.996,158.446,307.816,168.207,307.816,178.471z
	 M199.951,114.864v19.973c-4.397-1.596-7.206-5.663-7.206-10.213C192.745,120.236,195.92,116.597,199.951,114.864z M200.683,150.333
	c2.208,13.363,9.458,26.178,20.9,34.891v12.781l-15.301,5.931c-0.887-1.863-1.996-3.618-3.312-5.227v-20.237
	c0-10.178-2.144-19.961-6.052-28.858C198.144,149.948,199.404,150.175,200.683,150.333z M128.002,361.36h7.459l15.93,94.121
	l-19.659,21.627l-19.659-21.627L128.002,361.36z M137.777,346.359h-12.091l-2.759-4.153l8.805-6.253l8.805,6.253L137.777,346.359z
	 M399.59,283.353v7.552l-19.36,23.897l-19.397-23.943v-7.195c6.305,2.18,13.097,3.186,19.49,3.188c0.001,0,0.003,0,0.004,0l0,0
	h0.001C386.938,286.851,393.63,285.596,399.59,283.353z M380.328,271.85c-25.493,0-41.125-19.966-41.125-39.756v-35.132
	c23.514,0.939,48.149-5.987,68.4-18.591c6.763,7.252,10.787,11.465,12.482,13.421c0,18.673,0,25.884,0,40.302
	C420.086,253.511,402.693,271.85,380.328,271.85z M435.087,225.257v-20.403c4.536,1.653,7.206,5.798,7.206,10.192
	C442.294,219.604,439.476,223.662,435.087,225.257z M379.643,121.645c31.334,0,56.825,25.493,56.825,56.826v11.217
	c-0.341-0.071-1.279-0.233-1.404-0.252c-0.102-2.119-0.641-3.415-1.792-5.07c-1.971-2.831-5.381-6.209-16.458-18.116
	c-3.868-4.152-10.246-5.087-15.196-1.852c-18.48,12.072-41.829,18.891-64.045,17.448c-6.241-0.409-10.762,2.647-12.633,7.707
	c-0.167,0.027-2.019,0.401-2.124,0.426v-11.508C322.817,147.137,348.309,121.645,379.643,121.645z M198.567,88.051
	c0-31.335,25.493-56.826,56.826-56.826s56.825,25.492,56.825,56.826v11.217c-0.339-0.07-1.279-0.233-1.404-0.252
	c-0.111-2.297-0.773-3.709-2.124-5.536c-2.008-2.718-5.71-6.455-16.126-17.651c-3.933-4.223-10.321-5.038-15.196-1.852
	c-19.516,12.75-43.191,18.955-64.65,17.418c-5.25-0.397-10.193,2.775-12.027,7.736c-0.167,0.027-2.02,0.401-2.124,0.426V88.051
	H198.567z M68.495,215.046c0-4.413,3.2-8.039,7.206-9.76v19.972C71.304,223.662,68.495,219.595,68.495,215.046z M90.703,232.094
	v-35.132c23.809,0.951,48.428-6.161,68.4-18.591c6.699,7.184,10.785,11.463,12.482,13.421c0,18.673,0,25.884,0,40.302
	c0,21.813-17.785,39.756-39.757,39.756C107.365,271.85,90.703,252.963,90.703,232.094z M131.824,286.851c0.001,0,0.003,0,0.004,0
	l0,0l0,0c6.706,0,13.386-1.288,19.262-3.498v7.552l-19.36,23.897l-19.397-23.943v-7.195
	C118.613,285.835,125.399,286.85,131.824,286.851z M15.001,479.514V361.894c0-24.089,20.297-33.271,21.611-33.839l38.921-15.089
	l17.051,34.171c0,0,0,0,0.001,0.001c1.533,3.073,4.324,5.313,7.655,6.146c3.293,0.823,6.816,0.193,9.647-1.818l0.803-0.57
	l3.083,4.641l-16.755,98.996c-0.013,0.074-0.024,0.149-0.035,0.224c-0.482,3.491,0.603,7.088,2.906,9.625l14.903,16.395h-55.03
	V371.199c0-4.142-3.357-7.5-7.5-7.5s-7.5,3.358-7.5,7.5v109.578H16.265C15.567,480.777,15.001,480.21,15.001,479.514z
	 M247.236,480.777H218.74V371.199c0-4.142-3.357-7.5-7.5-7.5c-4.143,0-7.5,3.358-7.5,7.5v109.578H148.67l14.905-16.397
	c2.302-2.533,3.387-6.13,2.904-9.623c-0.011-0.075-0.022-0.149-0.035-0.224l-16.755-98.996l3.083-4.641l0.803,0.57
	c2.007,1.426,4.383,2.17,6.794,2.17c4.399,0,8.496-2.465,10.51-6.498v-0.001l17.049-34.17l38.945,15.083
	c11.352,4.938,21.625,17.673,21.625,33.844v117.619C248.499,480.21,247.933,480.777,247.236,480.777z M308.262,480.777V371.199
	c0-4.142-3.357-7.5-7.5-7.5s-7.5,3.358-7.5,7.5v109.578h-28.497c-0.697,0-1.264-0.567-1.264-1.263V361.894
	c0-8.916,2.796-17.128,8.752-24.027c3.971-4.555,9.238-8.243,12.86-9.812l10.315-3.999l28.607-11.091l17.051,34.172
	c0,0,0,0,0.001,0.001c1.533,3.073,4.324,5.313,7.655,6.146c3.293,0.823,6.816,0.193,9.647-1.818l0.803-0.57l3.083,4.641
	l-16.755,98.996c-0.013,0.074-0.024,0.149-0.035,0.224c-0.482,3.491,0.603,7.088,2.906,9.625l14.903,16.395h-55.03V480.777z
	 M380.231,477.109l-19.659-21.627l15.93-94.121h7.459l15.93,94.121L380.231,477.109z M386.276,346.359h-12.091l-2.759-4.153
	l8.805-6.253l8.805,6.253L386.276,346.359z M407.657,337.031c-0.002-0.002-16.353-11.615-16.585-11.78
	c7.054-8.708,3.74-4.617,18.408-22.721l12.899,4.995L407.657,337.031z"/>
<g>
</g>
<g>
</g>
<g>
</g>
<g>
</g>
<g>
</g>
<g>
</g>
<g>
</g>
<g>
</g>
<g>
</g>
<g>
</g>
<g>
</g>
<g>
</g>
<g>
</g>
<g>
</g>
<g>
</g>
</svg>
