<?xml version="1.0" encoding="iso-8859-1"?>
<!-- Generator: Adobe Illustrator 19.0.0, SVG Export Plug-In . SVG Version: 6.00 Build 0)  -->
<svg version="1.1" id="Capa_1" xmlns="http://www.w3.org/2000/svg" xmlns:xlink="http://www.w3.org/1999/xlink" x="0px" y="0px"
	 viewBox="0 0 512 512" style="enable-background:new 0 0 512 512;" xml:space="preserve">
<path style="fill:#AD7B64;" d="M312.041,258.95c2.223,3.9,6.367,6.308,10.856,6.308h126.448v179.782
	c0,8.244-6.683,14.928-14.927,14.928H254.753V164.936L312.041,258.95z"/>
<polygon style="fill:#966653;" points="254.753,164.936 254.753,459.969 274.753,459.969 274.753,197.758 "/>
<path style="fill:#AD7B64;" d="M198.466,258.95c-2.223,3.9-6.367,6.308-10.856,6.308H61.162v179.782
	c0,8.244,6.683,14.928,14.927,14.928h179.663V164.936L198.466,258.95z"/>
<path style="fill:#966653;" d="M81.163,445.04V265.258h-20V445.04c0,8.244,6.683,14.928,14.927,14.928h20
	C87.846,459.969,81.163,453.286,81.163,445.04z"/>
<path style="fill:#9E6B57;" d="M496.301,268.258H320.897c-4.489,0-8.633-2.408-10.856-6.308l-55.287-97.013h184.774
	c6.069,0,11.672,3.256,14.677,8.529l48.118,84.432C504.954,262.517,501.618,268.258,496.301,268.258z"/>
<path style="fill:#875848;" d="M332.665,261.949l-55.287-97.013h-22.625l55.287,97.013c2.223,3.9,6.367,6.308,10.856,6.308h22.624
	C339.031,268.258,334.887,265.85,332.665,261.949z"/>
<g>
	<circle style="fill:#00AAF0;" cx="388.895" cy="137.142" r="85.931"/>
	<path style="fill:#00AAF0;" d="M323.293,137.142c0-44.019,33.102-80.284,75.768-85.316c-3.337-0.394-6.724-0.619-10.167-0.619
		c-47.461,0-85.935,38.475-85.935,85.935s38.475,85.935,85.935,85.935c3.442,0,6.83-0.226,10.167-0.619
		C356.395,217.426,323.293,181.161,323.293,137.142z"/>
</g>
<path style="fill:#7CE854;" d="M387.277,177.792c-4.418,0-8.657-1.754-11.783-4.881l-36.026-36.027
	c-6.508-6.508-6.508-17.059,0-23.567c6.508-6.508,17.059-6.508,23.567,0l24.061,24.062l73.453-75.724
	c6.408-6.606,16.958-6.767,23.564-0.359s6.767,16.958,0.359,23.565l-85.233,87.87c-3.108,3.204-7.371,5.027-11.835,5.061
	C387.361,177.792,387.319,177.792,387.277,177.792z"/>
<g>
	<path style="fill:#6FD844;" d="M396.06,146.1c1.295,1.26,3.365,1.231,4.625-0.063l82.114-84.383
		c0.268-0.276,0.553-0.525,0.835-0.779c-6.628-5.959-16.827-5.674-23.085,0.779l-73.453,75.724L396.06,146.1z"/>
	<path style="fill:#6FD844;" d="M397.743,172.911l-36.026-36.027c-6.508-6.508-6.508-17.059,0-23.567
		c0.212-0.212,0.439-0.397,0.659-0.595c-6.543-5.887-16.613-5.701-22.909,0.595c-6.508,6.508-6.508,17.059,0,23.567l36.026,36.027
		c3.127,3.127,7.365,4.881,11.783,4.881c0.042,0,0.085,0,0.127,0c4.081-0.031,7.984-1.572,11-4.282
		C398.183,173.311,397.954,173.122,397.743,172.911z"/>
</g>
<path style="fill:#9E6B57;" d="M14.206,268.258H189.61c4.489,0,8.633-2.408,10.856-6.308l55.287-97.013H70.98
	c-6.069,0-11.672,3.256-14.677,8.529L8.185,257.897C5.552,262.517,8.889,268.258,14.206,268.258z"/>
<path style="fill:#875848;" d="M28.185,257.897l48.117-84.432c3.005-5.273,8.608-8.529,14.677-8.529h-20
	c-6.069,0-11.672,3.256-14.677,8.529L8.185,257.897c-2.633,4.62,0.703,10.361,6.021,10.361h20
	C28.889,268.258,25.552,262.517,28.185,257.897z"/>
<path d="M510.085,253.684L510.085,253.684l-40.079-70.329c7.966-13.745,12.532-29.696,12.532-46.695
	c0-11.396-2.032-22.49-6.041-33.052l13.606-14.027c9.299-9.586,9.068-24.87-0.521-34.17c-9.839-9.543-25.1-8.831-34.17,0.521
	l-7.739,7.979c-11.507-9.273-25.032-15.7-39.527-18.706c-4.052-0.839-8.025,1.765-8.867,5.82c-0.841,4.056,1.765,8.026,5.82,8.867
	c11.706,2.428,22.665,7.51,32.084,14.832l-49.922,51.466c-11.465-11.465-7.224-7.223-18.677-18.677
	c-10.145-10.143-26.785-9.268-35.831,1.833c-7.728,9.482-7.176,23.508,1.656,32.342l36.026,36.024
	c9.771,9.776,25.288,9.17,34.433-0.262l59.843-61.694c1.879,6.772,2.826,13.766,2.826,20.903c0,43.281-35.228,78.416-78.416,78.416
	c-43.343,0-78.416-35.32-78.416-78.416c0-37.005,26.258-69.296,62.436-76.782c4.057-0.84,6.664-4.809,5.825-8.864
	c-0.84-4.058-4.813-6.662-8.864-5.825c-43.108,8.921-74.397,47.391-74.397,91.472c0,6.961,0.772,13.745,2.223,20.275
	c-4.621,0-219.319,0-226.702,0c-8.743,0-16.863,4.719-21.192,12.314l-48.12,84.434c-5.48,9.618,1.455,21.574,12.537,21.574h39.457
	V444.54c0,12.366,10.061,22.428,22.428,22.428l0,0h359.327c12.366,0,22.427-10.062,22.427-22.428v-72.588c0-4.143-3.357-7.5-7.5-7.5
	s-7.5,3.357-7.5,7.5v72.588c0,4.096-3.332,7.428-7.427,7.428H263.5V192.746l41.271,72.417c3.549,6.228,10.206,10.096,17.373,10.096
	h120.947v61.694c0,4.143,3.357,7.5,7.5,7.5s7.5-3.357,7.5-7.5v-61.694h39.458c5.2,0,9.863-2.685,12.477-7.181
	C512.638,263.581,512.66,258.201,510.085,253.684z M479.138,66.179c3.628,3.519,3.733,9.314,0.197,12.959
	c-10.521,10.847-74.372,76.672-85.233,87.869c-3.601,3.713-9.484,3.677-13.058,0.099c-22.097-22.096-13.929-13.928-36.027-36.025
	c-3.55-3.55-3.592-9.368,0-12.96c3.572-3.574,9.39-3.572,12.96,0l24.062,24.062c2.963,2.961,7.772,2.923,10.688-0.082
	c8.724-8.994,62.17-64.094,73.452-75.725C469.697,62.748,475.493,62.641,479.138,66.179z M63.064,176.679
	c1.667-2.925,4.795-4.742,8.161-4.742h171.867l-48.897,85.799v0.001c-0.886,1.555-2.549,2.521-4.34,2.521
	c-4.885,0-170.495,0-174.423,0L63.064,176.679z M76.337,451.969c-4.095,0-7.427-3.332-7.427-7.428V275.258h120.947
	c7.167,0,13.824-3.868,17.373-10.095l41.271-72.417v259.223L76.337,451.969L76.337,451.969z M322.143,260.258
	c-1.791,0-3.454-0.967-4.34-2.522l-48.897-85.799h33.716c14.341,35.118,48.752,58.529,87.471,58.128
	c27.172-0.276,52.782-12.247,70.384-33.13l36.089,63.324C494.863,260.258,325.792,260.258,322.143,260.258z"/>
<g>
</g>
<g>
</g>
<g>
</g>
<g>
</g>
<g>
</g>
<g>
</g>
<g>
</g>
<g>
</g>
<g>
</g>
<g>
</g>
<g>
</g>
<g>
</g>
<g>
</g>
<g>
</g>
<g>
</g>
</svg>
