<?xml version="1.0" encoding="iso-8859-1"?>
<!-- Generator: Adobe Illustrator 19.0.0, SVG Export Plug-In . SVG Version: 6.00 Build 0)  -->
<svg version="1.1" id="Capa_1" xmlns="http://www.w3.org/2000/svg" xmlns:xlink="http://www.w3.org/1999/xlink" x="0px" y="0px"
	 viewBox="0 0 512 512" style="enable-background:new 0 0 512 512;" xml:space="preserve">
<g>
	<path id="SVGCleanerId_0" d="M399.992,448.408c-13.317-0.33-23.331-7.483-23.331-13.647c0-3.081,2.751-7.703,6.162-7.703
		c4.183,0,7.483,7.153,17.169,8.254v-21.9c-10.016-3.741-21.351-8.033-21.351-22.12c0-13.977,10.346-20.029,21.351-21.46v-3.082
		c0-1.43,1.65-2.751,3.741-2.751c1.871,0,3.741,1.321,3.741,2.751v2.861c7.153,0.22,18.819,2.311,18.819,8.695
		c0,2.531-1.761,7.593-5.833,7.593c-3.081,0-5.612-3.521-12.986-4.072v19.369c9.796,3.631,20.8,8.584,20.8,23.551
		c0,13.537-8.475,21.35-20.8,23.331v3.411c0,1.431-1.87,2.751-3.741,2.751c-2.091,0-3.741-1.32-3.741-2.751V448.408z
		 M400.872,398.774v-16.618c-5.502,0.88-8.805,3.521-8.805,7.703C392.068,394.702,395.809,396.793,400.872,398.774z
		 M406.595,416.052v19.149c4.842-0.991,8.254-3.852,8.254-9.025C414.848,420.784,411.327,418.143,406.595,416.052z"/>
</g>
<g>
	<path id="SVGCleanerId_0_1_" d="M399.992,448.408c-13.317-0.33-23.331-7.483-23.331-13.647c0-3.081,2.751-7.703,6.162-7.703
		c4.183,0,7.483,7.153,17.169,8.254v-21.9c-10.016-3.741-21.351-8.033-21.351-22.12c0-13.977,10.346-20.029,21.351-21.46v-3.082
		c0-1.43,1.65-2.751,3.741-2.751c1.871,0,3.741,1.321,3.741,2.751v2.861c7.153,0.22,18.819,2.311,18.819,8.695
		c0,2.531-1.761,7.593-5.833,7.593c-3.081,0-5.612-3.521-12.986-4.072v19.369c9.796,3.631,20.8,8.584,20.8,23.551
		c0,13.537-8.475,21.35-20.8,23.331v3.411c0,1.431-1.87,2.751-3.741,2.751c-2.091,0-3.741-1.32-3.741-2.751V448.408z
		 M400.872,398.774v-16.618c-5.502,0.88-8.805,3.521-8.805,7.703C392.068,394.702,395.809,396.793,400.872,398.774z
		 M406.595,416.052v19.149c4.842-0.991,8.254-3.852,8.254-9.025C414.848,420.784,411.327,418.143,406.595,416.052z"/>
</g>
<g>
	<path id="SVGCleanerId_0_2_" d="M399.992,448.408c-13.317-0.33-23.331-7.483-23.331-13.647c0-3.081,2.751-7.703,6.162-7.703
		c4.183,0,7.483,7.153,17.169,8.254v-21.9c-10.016-3.741-21.351-8.033-21.351-22.12c0-13.977,10.346-20.029,21.351-21.46v-3.082
		c0-1.43,1.65-2.751,3.741-2.751c1.871,0,3.741,1.321,3.741,2.751v2.861c7.153,0.22,18.819,2.311,18.819,8.695
		c0,2.531-1.761,7.593-5.833,7.593c-3.081,0-5.612-3.521-12.986-4.072v19.369c9.796,3.631,20.8,8.584,20.8,23.551
		c0,13.537-8.475,21.35-20.8,23.331v3.411c0,1.431-1.87,2.751-3.741,2.751c-2.091,0-3.741-1.32-3.741-2.751V448.408z
		 M400.872,398.774v-16.618c-5.502,0.88-8.805,3.521-8.805,7.703C392.068,394.702,395.809,396.793,400.872,398.774z
		 M406.595,416.052v19.149c4.842-0.991,8.254-3.852,8.254-9.025C414.848,420.784,411.327,418.143,406.595,416.052z"/>
</g>
<g>
	<path id="SVGCleanerId_0_3_" d="M399.992,448.408c-13.317-0.33-23.331-7.483-23.331-13.647c0-3.081,2.751-7.703,6.162-7.703
		c4.183,0,7.483,7.153,17.169,8.254v-21.9c-10.016-3.741-21.351-8.033-21.351-22.12c0-13.977,10.346-20.029,21.351-21.46v-3.082
		c0-1.43,1.65-2.751,3.741-2.751c1.871,0,3.741,1.321,3.741,2.751v2.861c7.153,0.22,18.819,2.311,18.819,8.695
		c0,2.531-1.761,7.593-5.833,7.593c-3.081,0-5.612-3.521-12.986-4.072v19.369c9.796,3.631,20.8,8.584,20.8,23.551
		c0,13.537-8.475,21.35-20.8,23.331v3.411c0,1.431-1.87,2.751-3.741,2.751c-2.091,0-3.741-1.32-3.741-2.751V448.408z
		 M400.872,398.774v-16.618c-5.502,0.88-8.805,3.521-8.805,7.703C392.068,394.702,395.809,396.793,400.872,398.774z
		 M406.595,416.052v19.149c4.842-0.991,8.254-3.852,8.254-9.025C414.848,420.784,411.327,418.143,406.595,416.052z"/>
</g>
<path style="fill:#E4EAF8;" d="M365.113,8H26.583c-7.948,0-14.451,6.502-14.451,14.451c0,7.771,0,464.727,0,468.097
	c0,4.091,1.731,7.791,4.488,10.427l0,0c2.3,2.3,6.071,4.023,9.963,4.023h338.531c3.913,0,7.691-1.752,9.963-4.023l0,0
	c2.756-2.635,4.488-6.335,4.488-10.427V314.435V22.451C379.564,14.503,373.062,8,365.113,8z"/>
<path style="fill:#D8DCE5;" d="M36.621,500.975L36.621,500.975c-2.756-2.635-4.488-6.335-4.488-10.427c0-4.304,0-460.098,0-468.097
	C32.133,14.504,38.635,8,46.584,8H26.583c-7.948,0-14.451,6.502-14.451,14.451c0,7.771,0,464.727,0,468.097
	c0,4.091,1.731,7.791,4.488,10.427l0,0c2.3,2.3,6.071,4.023,9.963,4.023h20.001C42.724,505,38.919,503.273,36.621,500.975z"/>
<path style="fill:#707487;" d="M321.767,165.862H69.929c-6.6,0-12.001-5.4-12.001-12.001V71.035c0-6.6,5.4-12.001,12.001-12.001
	h251.837c6.6,0,12.001,5.4,12.001,12.001v82.826C333.767,160.462,328.367,165.862,321.767,165.862z"/>
<path style="fill:#5B5D6E;" d="M77.93,153.861V71.035c0-6.6,5.4-12.001,12.001-12.001H69.929c-6.6,0-12.001,5.4-12.001,12.001
	v82.826c0,6.6,5.4,12.001,12.001,12.001H89.93C83.33,165.862,77.93,160.462,77.93,153.861z"/>
<path style="fill:#00C3FF;" d="M117.38,260.14H88.065c-6.6,0-12.001-5.4-12.001-12.001v-29.315c0-6.6,5.4-12.001,12.001-12.001
	h29.315c6.6,0,12.001,5.4,12.001,12.001v29.315C129.381,254.739,123.981,260.14,117.38,260.14z"/>
<path style="fill:#00AAF0;" d="M95.816,248.139v-29.315c0-6.6,5.4-12.001,12.001-12.001H88.065c-6.6,0-12.001,5.4-12.001,12.001
	v29.315c0,6.6,5.4,12.001,12.001,12.001h19.751C101.216,260.14,95.816,254.739,95.816,248.139z"/>
<path style="fill:#FF5050;" d="M301.181,301.111h-24.414c-7.948,0-14.451,6.502-14.451,14.451v50.699v67.781
	c0,3.405,1.2,6.539,3.189,9.017l0,0c1,1,4.181,5.434,11.262,5.434h24.414c4.202,0,8.435-1.914,11.261-5.434l0,0l0,0
	c1.989-2.477,3.189-5.611,3.189-9.017v-67.781v-50.699C315.632,307.614,309.13,301.111,301.181,301.111z"/>
<path style="fill:#ED3A3A;" d="M282.317,434.041V366.26v-50.699c0-7.947,6.502-14.451,14.451-14.451h-20.001
	c-7.948,0-14.451,6.502-14.451,14.451v50.699v67.781c0,7.939,6.532,14.451,14.451,14.451h20.001
	C288.924,448.492,282.317,442.055,282.317,434.041z"/>
<circle style="fill:#F9B428;" cx="402.694" cy="408.315" r="96.686"/>
<path style="fill:#E59F23;" d="M325.633,408.315c0-50.085,38.083-91.274,86.871-96.192c-3.227-0.325-6.5-0.493-9.814-0.493
	c-53.397,0-96.685,43.288-96.685,96.685S349.293,505,402.69,505c3.313,0,6.586-0.167,9.814-0.493
	C363.715,499.588,325.633,458.4,325.633,408.315z"/>
<circle style="fill:#FCD592;" cx="402.694" cy="408.315" r="65.801"/>
<path style="fill:#FFC850;" d="M356.891,408.315c0-32.941,24.205-60.228,55.8-65.045c-3.261-0.497-6.6-0.756-10.001-0.756
	c-36.341,0-65.801,29.46-65.801,65.801s29.46,65.801,65.801,65.801c3.4,0,6.739-0.258,10.001-0.755
	C381.096,468.542,356.891,441.256,356.891,408.315z"/>
<path style="fill:#00C3FF;" d="M210.506,260.14h-29.315c-6.6,0-12.001-5.4-12.001-12.001v-29.315c0-6.6,5.4-12.001,12.001-12.001
	h29.315c6.6,0,12.001,5.4,12.001,12.001v29.315C222.506,254.739,217.106,260.14,210.506,260.14z"/>
<path style="fill:#00AAF0;" d="M188.941,248.139v-29.315c0-6.6,5.4-12.001,12.001-12.001h-19.751c-6.6,0-12.001,5.4-12.001,12.001
	v29.315c0,6.6,5.4,12.001,12.001,12.001h19.751C194.342,260.14,188.941,254.739,188.941,248.139z"/>
<path style="fill:#00C3FF;" d="M303.631,260.14h-29.315c-6.6,0-12.001-5.4-12.001-12.001v-29.315c0-6.6,5.4-12.001,12.001-12.001
	h29.315c6.6,0,12.001,5.4,12.001,12.001v29.315C315.632,254.739,310.232,260.14,303.631,260.14z"/>
<path style="fill:#00AAF0;" d="M282.067,248.139v-29.315c0-6.6,5.4-12.001,12.001-12.001h-19.751c-6.6,0-12.001,5.4-12.001,12.001
	v29.315c0,6.6,5.4,12.001,12.001,12.001h19.751C287.467,260.14,282.067,254.739,282.067,248.139z"/>
<path style="fill:#00C3FF;" d="M117.38,354.426H88.065c-6.6,0-12.001-5.4-12.001-12.001v-29.315c0-6.6,5.4-12.001,12.001-12.001
	h29.315c6.6,0,12.001,5.4,12.001,12.001v29.315C129.381,349.026,123.981,354.426,117.38,354.426z"/>
<path style="fill:#00AAF0;" d="M95.816,342.426v-29.315c0-6.6,5.4-12.001,12.001-12.001H88.065c-6.6,0-12.001,5.4-12.001,12.001
	v29.315c0,6.6,5.4,12.001,12.001,12.001h19.751C101.216,354.426,95.816,349.026,95.816,342.426z"/>
<path style="fill:#00C3FF;" d="M210.506,354.426h-29.315c-6.6,0-12.001-5.4-12.001-12.001v-29.315c0-6.6,5.4-12.001,12.001-12.001
	h29.315c6.6,0,12.001,5.4,12.001,12.001v29.315C222.506,349.026,217.106,354.426,210.506,354.426z"/>
<path style="fill:#00AAF0;" d="M188.941,342.426v-29.315c0-6.6,5.4-12.001,12.001-12.001h-19.751c-6.6,0-12.001,5.4-12.001,12.001
	v29.315c0,6.6,5.4,12.001,12.001,12.001h19.751C194.342,354.426,188.941,349.026,188.941,342.426z"/>
<path style="fill:#00C3FF;" d="M117.38,448.714H88.065c-6.6,0-12.001-5.4-12.001-12.001v-29.315c0-6.6,5.4-12.001,12.001-12.001
	h29.315c6.6,0,12.001,5.4,12.001,12.001v29.315C129.381,443.314,123.981,448.714,117.38,448.714z"/>
<path style="fill:#00AAF0;" d="M95.816,436.713v-29.315c0-6.6,5.4-12.001,12.001-12.001H88.065c-6.6,0-12.001,5.4-12.001,12.001
	v29.315c0,6.6,5.4,12.001,12.001,12.001h19.751C101.216,448.714,95.816,443.314,95.816,436.713z"/>
<path style="fill:#00C3FF;" d="M210.506,448.714h-29.315c-6.6,0-12.001-5.4-12.001-12.001v-29.315c0-6.6,5.4-12.001,12.001-12.001
	h29.315c6.6,0,12.001,5.4,12.001,12.001v29.315C222.506,443.314,217.106,448.714,210.506,448.714z"/>
<path style="fill:#00AAF0;" d="M188.941,436.713v-29.315c0-6.6,5.4-12.001,12.001-12.001h-19.751c-6.6,0-12.001,5.4-12.001,12.001
	v29.315c0,6.6,5.4,12.001,12.001,12.001h19.751C194.342,448.714,188.941,443.314,188.941,436.713z"/>
<path d="M88.312,267.14h29.315c10.753,0,19.501-8.749,19.501-19.501v-29.315c0-10.753-8.749-19.501-19.501-19.501H88.312
	c-10.753,0-19.501,8.749-19.501,19.501v29.315C68.811,258.392,77.56,267.14,88.312,267.14z M83.812,218.325
	c0-2.439,2.061-4.5,4.5-4.5h29.315c2.439,0,4.5,2.061,4.5,4.5v29.315c0,2.439-2.061,4.5-4.5,4.5H88.312c-2.439,0-4.5-2.061-4.5-4.5
	V218.325z"/>
<path d="M140.998,312.612c0-10.753-8.749-19.501-19.501-19.501H92.183c-10.753,0-19.501,8.749-19.501,19.501v29.315
	c0,10.753,8.749,19.501,19.501,19.501h29.315c10.753,0,19.501-8.749,19.501-19.501v-29.315H140.998z M125.997,341.926
	c0,2.439-2.061,4.5-4.5,4.5H92.183c-2.439,0-4.5-2.061-4.5-4.5v-29.315c0-2.439,2.061-4.5,4.5-4.5h29.315c2.439,0,4.5,2.061,4.5,4.5
	v29.315H125.997z"/>
<path d="M90.979,455.493h29.315c10.753,0,19.501-8.749,19.501-19.501v-29.315c0-10.753-8.749-19.501-19.501-19.501H90.979
	c-10.753,0-19.501,8.749-19.501,19.501v29.315C71.477,446.745,80.226,455.493,90.979,455.493z M86.478,406.677
	c0-2.439,2.061-4.5,4.5-4.5h29.315c2.439,0,4.5,2.061,4.5,4.5v29.315c0,2.439-2.061,4.5-4.5,4.5H90.979c-2.439,0-4.5-2.061-4.5-4.5
	V406.677z"/>
<path d="M181.438,267.14h29.315c10.753,0,19.501-8.749,19.501-19.501v-29.315c0-10.753-8.749-19.501-19.501-19.501h-29.315
	c-10.753,0-19.501,8.749-19.501,19.501v29.315C161.937,258.392,170.685,267.14,181.438,267.14z M176.938,218.325
	c0-2.439,2.061-4.5,4.5-4.5h29.315c2.439,0,4.5,2.061,4.5,4.5v29.315c0,2.439-2.061,4.5-4.5,4.5h-29.315c-2.439,0-4.5-2.061-4.5-4.5
	V218.325z"/>
<path d="M212.688,293.111h-29.315c-10.753,0-19.501,8.749-19.501,19.501v29.315c0,10.753,8.749,19.501,19.501,19.501h29.315
	c10.753,0,19.501-8.749,19.501-19.501v-29.315C232.189,301.858,223.441,293.111,212.688,293.111z M217.188,341.926
	c0,2.439-2.061,4.5-4.5,4.5h-29.315c-2.439,0-4.5-2.061-4.5-4.5v-29.315c0-2.439,2.061-4.5,4.5-4.5h29.315
	c2.439,0,4.5,2.061,4.5,4.5V341.926z"/>
<path d="M182.771,455.493h29.315c10.753,0,19.501-8.749,19.501-19.501v-29.315c0-10.753-8.749-19.501-19.501-19.501h-29.315
	c-10.753,0-19.501,8.749-19.501,19.501v29.315C163.27,446.745,172.018,455.493,182.771,455.493z M178.271,406.677
	c0-2.439,2.061-4.5,4.5-4.5h29.315c2.439,0,4.5,2.061,4.5,4.5v29.315c0,2.439-2.061,4.5-4.5,4.5h-29.315c-2.439,0-4.5-2.061-4.5-4.5
	V406.677z"/>
<path d="M303.877,198.824h-29.315c-10.753,0-19.501,8.749-19.501,19.501v29.315c0,10.753,8.749,19.501,19.501,19.501h29.315
	c10.753,0,19.501-8.749,19.501-19.501v-29.315C323.379,207.572,314.63,198.824,303.877,198.824z M308.378,247.639
	c0,2.439-2.061,4.5-4.5,4.5h-29.315c-2.439,0-4.5-2.061-4.5-4.5v-29.315c0-2.439,2.061-4.5,4.5-4.5h29.315
	c2.439,0,4.5,2.061,4.5,4.5V247.639z"/>
<path d="M106.839,104.447c-4.143,0-7.5,3.358-7.5,7.5c0,4.142,3.357,7.5,7.5,7.5h182.381c4.143,0,7.5-3.358,7.5-7.5
	c0-4.142-3.357-7.5-7.5-7.5H106.839z"/>
<path d="M402.936,334.513c-40.418,0-73.301,32.883-73.301,73.301s32.883,73.301,73.301,73.301s73.301-32.883,73.301-73.301
	S443.355,334.513,402.936,334.513z M402.936,466.115c-32.147,0-58.301-26.154-58.301-58.301s26.154-58.301,58.301-58.301
	s58.301,26.154,58.301,58.301S435.083,466.115,402.936,466.115z"/>
<path d="M402.936,303.629c-5.309,0-10.527,0.402-15.625,1.172V21.951C387.311,9.848,377.464,0,365.36,0H26.83
	C14.726,0,4.878,9.848,4.878,21.951v468.097C4.878,502.153,14.726,512,26.83,512h151.764c4.143,0,7.5-3.358,7.5-7.5
	s-3.357-7.5-7.5-7.5H26.83c-3.832,0-6.95-3.118-6.95-6.95V21.951c0-3.832,3.118-6.95,6.95-6.95H365.36c3.832,0,6.95,3.118,6.95,6.95
	v286.272c-18.424,5.629-35.663,16.558-48.932,32.233v-25.396c0-12.104-9.848-21.951-21.951-21.951h-24.414
	c-12.104,0-21.95,9.848-21.95,21.951v118.48c0,12.104,9.848,21.951,21.95,21.951h24.414c2.809,0,5.538-0.539,8.074-1.547
	c9.166,18.471,23.272,33.148,39.626,43.053H213.596c-4.143,0-7.5,3.358-7.5,7.5s3.357,7.5,7.5,7.5H365.36
	c4.111,0,8.072-1.16,11.514-3.301c8.333,2.154,17.066,3.301,26.063,3.301c57.447,0,104.185-46.737,104.185-104.185
	S460.384,303.629,402.936,303.629z M301.427,440.492h-24.414c-3.832,0-6.949-3.118-6.949-6.95v-118.48
	c0-3.832,3.117-6.95,6.949-6.95h24.414c3.832,0,6.95,3.118,6.95,6.95v48.899c-6.227,13.462-9.627,28.434-9.627,43.855
	c0,10.863,1.702,21.856,5.077,32.241C303.068,440.342,302.258,440.492,301.427,440.492z M402.936,496.999
	c-50.287,0-89.184-41.414-89.184-89.184c0-49.285,40.116-89.184,89.184-89.184c49.176,0,89.184,40.007,89.184,89.184
	S452.112,496.999,402.936,496.999z"/>
<path d="M407.725,400.694v-19.369c4.119,0.333,6.236,1.308,10.675,3.521c2.34,1.176,5.045,0.597,6.769-2.319
	c1.744-2.971,2.11-6.565-0.551-8.781c-4.201-3.487-11.576-4.583-16.893-4.583v-2.889c0-0.741-0.386-1.389-1.156-1.945
	c-0.771-0.555-1.633-0.834-2.586-0.834c-1.028,0-1.908,0.275-2.641,0.826c-0.734,0.55-1.101,1.193-1.101,1.926v3.081
	c-12.779,1.687-21.351,8.644-21.351,21.46c0,13.505,10.013,17.792,21.351,22.121v21.9c-5.817-0.703-8.59-2.972-14.087-7.098
	c-2.742-2.053-5.414-1.276-7.429,1.547c-0.98,1.38-1.815,3.385-1.815,5.021c0,6.498,10.685,13.571,23.331,13.571v3.11
	c0,1.636,1.881,2.777,3.741,2.777c1.716,0,3.742-1.131,3.742-2.751v-3.412c11.07-1.71,20.8-8.715,20.8-23.331
	C428.525,410.871,420.102,405.196,407.725,400.694z M401.121,398.274c-6.686-2.672-8.805-4.823-8.805-8.915
	c0-4.79,4.054-6.954,8.805-7.704V398.274z M406.844,434.701v-19.149c6.855,3.004,8.254,6.27,8.254,10.126
	C415.098,430.804,411.752,433.662,406.844,434.701z"/>
<path d="M341.515,153.361v-23.912c0-4.142-3.357-7.5-7.5-7.5s-7.5,3.358-7.5,7.5v23.912c0,2.439-2.061,4.5-4.5,4.5H70.176
	c-2.439,0-4.5-2.061-4.5-4.5V70.534c0-2.439,2.061-4.5,4.5-4.5h251.837c2.439,0,4.5,2.061,4.5,4.5v23.912c0,4.142,3.357,7.5,7.5,7.5
	s7.5-3.358,7.5-7.5V70.534c0-10.753-8.749-19.501-19.501-19.501H70.176c-10.753,0-19.501,8.749-19.501,19.501v82.826
	c0,10.753,8.749,19.501,19.501,19.501h251.837C332.766,172.862,341.515,164.114,341.515,153.361z"/>
<g>
</g>
<g>
</g>
<g>
</g>
<g>
</g>
<g>
</g>
<g>
</g>
<g>
</g>
<g>
</g>
<g>
</g>
<g>
</g>
<g>
</g>
<g>
</g>
<g>
</g>
<g>
</g>
<g>
</g>
</svg>
