<?xml version="1.0" encoding="iso-8859-1"?>
<!-- Generator: Adobe Illustrator 19.0.0, SVG Export Plug-In . SVG Version: 6.00 Build 0)  -->
<svg version="1.1" id="Capa_1" xmlns="http://www.w3.org/2000/svg" xmlns:xlink="http://www.w3.org/1999/xlink" x="0px" y="0px"
	 viewBox="0 0 512.001 512.001" style="enable-background:new 0 0 512.001 512.001;" xml:space="preserve">
<rect x="228.264" y="398.465" style="fill:#C3C8D1;" width="105.546" height="59.004"/>
<rect x="228.264" y="398.465" style="fill:#B0B3B7;" width="20.001" height="59.004"/>
<path style="fill:#707487;" d="M472.489,24.807H89.581c-17.515,0-31.764,14.249-31.764,31.764v178.034v135.808
	c0,17.515,14.249,31.764,31.764,31.764h65.675c7.09,0,312.784,0,317.232,0c17.515,0,31.764-14.249,31.764-31.764
	c0-3.936,0-306.867,0-313.842C504.253,39.057,490.004,24.807,472.489,24.807z"/>
<path style="fill:#5E6377;" d="M77.819,370.413V234.604V56.571c0-17.514,14.249-31.764,31.764-31.764H89.581
	c-17.515,0-31.764,14.249-31.764,31.764v178.034v135.808c0,17.515,14.249,31.764,31.764,31.764h20.001
	C92.068,402.177,77.819,387.928,77.819,370.413z"/>
<path style="fill:#E4EAF8;" d="M93.111,111.24v123.363v129.441c0,1.568,1.271,2.839,2.839,2.839h59.308c3.116,0,307.215,0,310.864,0
	c1.568,0,2.839-1.271,2.839-2.839c0-9.533,0-242.315,0-252.804H93.111z"/>
<path style="fill:#D8DCE5;" d="M113.112,364.045V234.604V111.24H93.111v123.363v129.441c0,1.568,1.271,2.839,2.839,2.839h20.001
	C114.383,366.884,113.112,365.613,113.112,364.045z"/>
<path style="fill:#00C3FF;" d="M466.12,60.1H153.256v53.14h315.703V62.939C468.959,61.371,467.688,60.1,466.12,60.1z"/>
<path style="fill:#FF5050;" d="M155.257,60.1H95.95c-1.568,0-2.839,1.271-2.839,2.839v50.301h62.147V60.1z"/>
<path style="fill:#ED3A3A;" d="M115.951,60.1H95.95c-1.568,0-2.839,1.271-2.839,2.839v50.301h20.001V62.939
	C113.112,61.371,114.383,60.1,115.951,60.1z"/>
<path style="fill:#E4EAF8;" d="M365.603,488.194H196.467c-6.87,0-12.44-5.569-12.44-12.44v-11.071c0-6.87,5.569-12.44,12.44-12.44
	h169.136c6.87,0,12.44,5.569,12.44,12.44v11.071C378.043,482.624,372.474,488.194,365.603,488.194z"/>
<path style="fill:#D8DCE5;" d="M365.603,468.193H196.467c-5.294,0-9.804-3.313-11.6-7.974c-0.535,1.388-0.84,2.889-0.84,4.465
	v11.071c0,6.87,5.569,12.44,12.44,12.44h169.136c6.87,0,12.44-5.569,12.44-12.44v-11.071c0-1.576-0.305-3.078-0.84-4.465
	C375.407,464.88,370.897,468.193,365.603,468.193z"/>
<path style="fill:#E4EAF8;" d="M135.974,488.194H26.537c-10.606,0-19.283-8.678-19.283-19.283V253.887
	c0-10.606,8.678-19.283,19.283-19.283h109.438c10.606,0,19.283,8.678,19.283,19.283v215.024
	C155.256,479.517,146.58,488.194,135.974,488.194z"/>
<path style="fill:#D8DCE5;" d="M30.53,468.911V253.887c0-10.606,8.678-19.283,19.283-19.283H26.537
	c-10.606,0-19.283,8.678-19.283,19.283v215.024c0,10.606,8.678,19.283,19.283,19.283h23.275
	C39.206,488.194,30.53,479.517,30.53,468.911z"/>
<rect x="7.253" y="317.41" style="fill:#5BDDFC;" width="147.999" height="116.007"/>
<g>
	<rect x="7.253" y="317.41" style="fill:#00C3FF;" width="23.275" height="116.007"/>
	<rect x="37.563" y="286.368" style="fill:#00C3FF;" width="117.697" height="33.332"/>
</g>
<rect x="7.253" y="286.368" style="fill:#FF5050;" width="33.664" height="33.332"/>
<rect x="7.253" y="286.368" style="fill:#ED3A3A;" width="23.275" height="33.332"/>
<path style="fill:#C3C8D1;" d="M415.564,199.192H146.242c-6.6,0-12.001-5.4-12.001-12.001v-17.357c0-6.6,5.4-12.001,12.001-12.001
	h269.322c6.6,0,12.001,5.4,12.001,12.001v17.357C427.565,193.791,422.165,199.192,415.564,199.192z"/>
<path style="fill:#B0B3B7;" d="M415.564,178.887H146.242c-6.1,0-11.167-4.616-11.9-10.527c-0.06,0.484-0.101,0.974-0.101,1.474
	v17.357c0,6.6,5.4,12.001,12.001,12.001h269.321c6.6,0,12.001-5.4,12.001-12.001v-17.357c0-0.5-0.041-0.989-0.101-1.474
	C426.731,174.271,421.665,178.887,415.564,178.887z"/>
<path style="fill:#C3C8D1;" d="M167.257,329.097h119.048c6.6,0,12.001-5.4,12.001-12.001v-73.603c0-6.6-5.4-12.001-12.001-12.001
	H167.257c-6.6,0-12.001,5.4-12.001,12.001v73.603C155.256,323.697,160.657,329.097,167.257,329.097z"/>
<path style="fill:#B0B3B7;" d="M175.737,317.097v-73.603c0-6.6,5.4-12.001,12.001-12.001h-20.479c-6.6,0-12.001,5.4-12.001,12.001
	v73.603c0,6.6,5.4,12.001,12.001,12.001h20.479C181.137,329.097,175.737,323.697,175.737,317.097z"/>
<path d="M86.448,452.773h-9.894c-4.142,0-7.5,3.357-7.5,7.5c0,4.143,3.358,7.5,7.5,7.5h9.894c4.142,0,7.5-3.357,7.5-7.5
	C93.949,456.13,90.59,452.773,86.448,452.773z"/>
<path d="M76.555,268.369h9.894c4.142,0,7.5-3.357,7.5-7.5s-3.358-7.5-7.5-7.5h-9.894c-4.142,0-7.5,3.357-7.5,7.5
	S72.412,268.369,76.555,268.369z"/>
<path d="M417.615,233.383h-82.769c-4.143,0-7.5,3.357-7.5,7.5c0,4.143,3.357,7.5,7.5,7.5h82.769c4.143,0,7.5-3.357,7.5-7.5
	C425.116,236.74,421.758,233.383,417.615,233.383z"/>
<path d="M417.615,272.294h-82.769c-4.143,0-7.5,3.357-7.5,7.5c0,4.143,3.357,7.5,7.5,7.5h82.769c4.143,0,7.5-3.357,7.5-7.5
	C425.116,275.651,421.758,272.294,417.615,272.294z"/>
<path d="M417.615,311.206h-82.769c-4.143,0-7.5,3.357-7.5,7.5s3.357,7.5,7.5,7.5h82.769c4.143,0,7.5-3.357,7.5-7.5
	S421.758,311.206,417.615,311.206z"/>
<path d="M415.81,206.192c10.753,0,19.501-8.749,19.501-19.501v-17.357c0-10.753-8.749-19.501-19.501-19.501H298.783
	c-4.143,0-7.5,3.358-7.5,7.5c0,4.142,3.357,7.5,7.5,7.5h117.028c2.439,0,4.5,2.061,4.5,4.5v17.357c0,2.439-2.061,4.5-4.5,4.5
	H146.488c-2.439,0-4.5-2.061-4.5-4.5v-17.357c0-2.439,2.061-4.5,4.5-4.5H263.78c4.143,0,7.5-3.358,7.5-7.5
	c0-4.142-3.357-7.5-7.5-7.5H146.488c-10.753,0-19.501,8.749-19.501,19.501v17.357c0,10.753,8.749,19.501,19.501,19.501H415.81z"/>
<path d="M504.5,202.991c4.143,0,7.5-3.357,7.5-7.5V56.071c0-21.65-17.613-39.264-39.264-39.264H89.827
	c-21.65,0-39.263,17.614-39.263,39.264v170.532h-23.78C12.015,226.603,0,238.619,0,253.388v32.48V319.2c0,1.864,0,145.824,0,149.212
	c0,14.769,12.015,26.783,26.784,26.783h109.438c14.769,0,26.784-12.015,26.784-26.783c0-4.429,0-51.485,0-59.234h58.003v35.066
	h-24.292c-10.995,0-19.939,8.945-19.939,19.939v11.071c0,10.995,8.945,19.939,19.939,19.939H365.85
	c10.996,0,19.94-8.945,19.94-19.939v-11.071c0-10.995-8.945-19.939-19.94-19.939h-24.291v-35.066h131.178
	c21.65,0,39.264-17.613,39.264-39.264V230.492c0-4.143-3.357-7.5-7.5-7.5s-7.5,3.357-7.5,7.5v139.42
	c0,13.379-10.885,24.263-24.263,24.263c-15.486,0-294.29,0-309.732,0v-20.292h303.363c5.701,0,10.34-4.638,10.34-10.34
	c0-13.283,0-287.182,0-301.105c0-5.701-4.638-10.34-10.34-10.34c-7.451,0-352.635,0-370.17,0c-5.701,0-10.34,4.638-10.34,10.34
	c0,5.225,0,156.624,0,164.164H65.565V56.071c0-13.379,10.884-24.263,24.262-24.263h382.908c13.379,0,24.263,10.885,24.263,24.263
	V195.49C496.999,199.634,500.356,202.991,504.5,202.991z M370.789,464.184v11.071c0,2.723-2.216,4.938-4.939,4.938H196.714
	c-2.723,0-4.938-2.216-4.938-4.938v-11.071c0-2.723,2.215-4.938,4.938-4.938c5.541,0,160.307,0,169.135,0
	C368.573,459.244,370.789,461.46,370.789,464.184z M326.557,409.177v35.066h-90.549v-35.066H326.557z M148.003,293.367v18.331
	H48.665v-18.331H148.003z M15.001,326.699c5.852,0,127.303,0,133.002,0c0,10.895,0,87.923,0,98.721H15.001V326.699z
	 M163.004,242.992c0-2.439,2.061-4.5,4.5-4.5h119.048c2.439,0,4.5,2.061,4.5,4.5v73.604c0,2.439-2.061,4.5-4.5,4.5H167.504
	c-2.439,0-4.5-2.061-4.5-4.5C163.004,269.386,163.004,290.203,163.004,242.992z M33.664,311.698H15.001v-18.331h18.663
	C33.664,293.367,33.664,311.698,33.664,311.698z M136.22,480.194H26.784c-6.497,0-11.783-5.285-11.783-11.782v-27.99h133.002v27.99
	C148.003,474.907,142.718,480.194,136.22,480.194z M461.706,105.24H163.004V67.101h298.702L461.706,105.24L461.706,105.24z
	 M100.858,67.101h47.146v38.139h-47.146C100.858,105.24,100.858,67.101,100.858,67.101z M100.858,120.241
	c14.395,0,341.235,0,360.848,0v238.641H163.004v-23.33c1.447,0.344,2.949,0.545,4.5,0.545h119.048
	c10.753,0,19.501-8.749,19.501-19.501v-73.604c0-10.753-8.749-19.501-19.501-19.501H167.504c-6.486,0-12.227,3.195-15.774,8.081
	c-4.38-3.123-9.732-4.968-15.51-4.968l0,0h-35.363L100.858,120.241L100.858,120.241z M132.82,241.604
	c8.372,0,15.183,6.811,15.183,15.184v21.578c-5.7,0-127.15,0-133.002,0v-24.98c0-6.497,5.285-11.783,11.783-11.783
	C38.546,241.604,121.116,241.604,132.82,241.604z"/>
<g>
</g>
<g>
</g>
<g>
</g>
<g>
</g>
<g>
</g>
<g>
</g>
<g>
</g>
<g>
</g>
<g>
</g>
<g>
</g>
<g>
</g>
<g>
</g>
<g>
</g>
<g>
</g>
<g>
</g>
</svg>
