<?xml version="1.0" encoding="iso-8859-1"?>
<!-- Generator: Adobe Illustrator 19.0.0, SVG Export Plug-In . SVG Version: 6.00 Build 0)  -->
<svg version="1.1" id="Capa_1" xmlns="http://www.w3.org/2000/svg" xmlns:xlink="http://www.w3.org/1999/xlink" x="0px" y="0px"
	 viewBox="0 0 512 512" style="enable-background:new 0 0 512 512;" xml:space="preserve">
<path style="fill:#00C3FF;" d="M483.997,113.604H260.689v102.198c0,7.733-6.327,14.06-14.06,14.06h-16.68
	c-2.333,0-4.223,1.891-4.223,4.223v47.624c0,3.552-4.41,5.198-6.737,2.515l-44.394-51.164c-1.763-2.031-4.32-3.199-7.01-3.199
	h-32.759v145.622c0,11.141,9.115,20.255,20.255,20.255h28.352c3.36,0,6.084,2.724,6.084,6.084v68.609
	c0,5.117,6.353,7.489,9.707,3.624l63.955-73.709c2.54-2.927,6.225-4.608,10.101-4.608h210.72c11.141,0,20.255-9.115,20.255-20.255
	V133.858C504.253,122.719,495.138,113.604,483.997,113.604z"/>
<g>
	<path style="fill:#00AAF0;" d="M154.825,375.483v-145.62h-20.001v145.62c0,11.141,9.115,20.255,20.255,20.255h20.001
		C163.941,395.738,154.825,386.624,154.825,375.483z"/>
	<path style="fill:#00AAF0;" d="M209.517,401.823c0-3.36-2.724-6.084-6.084-6.084h-20.001c3.36,0,6.084,2.724,6.084,6.084v68.609
		c0,5.117,6.353,7.489,9.708,3.624l10.294-11.865V401.823z"/>
</g>
<path style="fill:#FF80BD;" d="M249.629,37.021H21.314c-7.732,0-14.06,6.327-14.06,14.06v167.722c0,7.732,6.327,14.06,14.06,14.06
	h146.27c2.69,0,5.247,1.167,7.01,3.199l44.394,51.164c2.328,2.683,6.738,1.037,6.738-2.516v-47.624c0-2.332,1.891-4.223,4.223-4.223
	h19.68c7.733,0,14.06-6.327,14.06-14.06V51.081C263.689,43.349,257.363,37.021,249.629,37.021z"/>
<g>
	<path style="fill:#F962B1;" d="M27.255,218.803V51.081c0-7.733,6.327-14.06,14.06-14.06H21.313c-7.732,0-14.06,6.327-14.06,14.06
		v167.722c0,7.732,6.327,14.06,14.06,14.06h20.001C33.582,232.863,27.255,226.536,27.255,218.803z"/>
	<path style="fill:#F962B1;" d="M194.595,236.062c-1.763-2.032-4.32-3.199-7.01-3.199h-20.001c2.69,0,5.248,1.167,7.01,3.199
		l44.394,51.164c2.328,2.683,6.738,1.036,6.738-2.516v-12.771L194.595,236.062z"/>
</g>
<g>
	<circle style="fill:#E4EAF8;" cx="70.93" cy="135.968" r="15.197"/>
	<circle style="fill:#E4EAF8;" cx="133.648" cy="135.968" r="15.197"/>
	<circle style="fill:#E4EAF8;" cx="196.362" cy="135.968" r="15.197"/>
</g>
<path d="M48.48,135.472c0,12.516,10.182,22.697,22.697,22.697s22.697-10.182,22.697-22.697s-10.182-22.697-22.697-22.697
	S48.48,122.957,48.48,135.472z M78.873,135.472c0,4.244-3.452,7.696-7.696,7.696s-7.696-3.452-7.696-7.696
	c0-4.244,3.452-7.696,7.696-7.696S78.873,131.228,78.873,135.472z"/>
<path d="M111.195,135.472c0,12.516,10.182,22.697,22.697,22.697s22.697-10.182,22.697-22.697s-10.182-22.697-22.697-22.697
	S111.195,122.957,111.195,135.472z M133.891,127.776c4.244,0,7.696,3.452,7.696,7.696c0,4.244-3.452,7.696-7.696,7.696
	c-4.244,0-7.696-3.452-7.696-7.696C126.195,131.228,129.648,127.776,133.891,127.776z"/>
<path d="M196.607,158.17c12.516,0,22.697-10.182,22.697-22.697s-10.182-22.697-22.697-22.697c-12.516,0-22.697,10.182-22.697,22.697
	S184.091,158.17,196.607,158.17z M196.607,127.776c4.244,0,7.696,3.452,7.696,7.696c0,4.244-3.452,7.696-7.696,7.696
	s-7.696-3.452-7.696-7.696C188.91,131.228,192.363,127.776,196.607,127.776z"/>
<path d="M454.371,333.182H181.409c-4.142,0-7.5,3.358-7.5,7.5c0,4.142,3.358,7.5,7.5,7.5h272.962c4.142,0,7.5-3.358,7.5-7.5
	C461.871,336.541,458.513,333.182,454.371,333.182z"/>
<path d="M504.5,247.669c4.142,0,7.5-3.358,7.5-7.5V133.359c0-15.304-12.451-27.755-27.756-27.755H271.436V50.581
	c0-11.889-9.672-21.56-21.56-21.56h-98.484c-4.142,0-7.5,3.358-7.5,7.5s3.358,7.5,7.5,7.5h98.484c3.617,0,6.559,2.942,6.559,6.559
	c0,4.823,0,162.901,0,167.721c0,3.617-2.942,6.56-6.559,6.56h-19.68c-6.464,0-11.725,5.259-11.725,11.724v37.815l-37.965-43.756
	c-3.189-3.676-7.809-5.784-12.676-5.784c-3.934,0-142.585,0-146.27,0c-3.617,0-6.559-2.942-6.559-6.559V50.581
	c0-3.617,2.942-6.559,6.559-6.559h94.83c4.142,0,7.5-3.358,7.5-7.5s-3.358-7.5-7.5-7.5H21.56C9.672,29.021,0,38.693,0,50.581
	v167.722c0,11.889,9.672,21.56,21.56,21.56h106.01v135.119c0,15.305,12.451,27.756,27.756,27.756h26.936v67.193
	c0,12.057,14.986,17.628,22.873,8.54l63.954-73.708c1.116-1.286,2.732-2.024,4.435-2.024h210.72
	c15.305,0,27.756-12.451,27.756-27.756v-99.812c0-4.142-3.358-7.5-7.5-7.5s-7.5,3.358-7.5,7.5v99.812
	c0,7.033-5.721,12.755-12.755,12.755h-210.72c-6.052,0-11.799,2.622-15.766,7.193l-60.496,69.723v-63.332
	c0-7.491-6.094-13.585-13.585-13.585h-28.352c-7.033,0-12.755-5.721-12.755-12.755V239.864h25.259c0.517,0,1.007,0.224,1.345,0.614
	l8.795,10.137c-2.411,1.247-4.061,3.759-4.061,6.66c0,4.142,3.358,7.5,7.5,7.5h8.849l23.169,26.704h-32.018
	c-4.142,0-7.5,3.358-7.5,7.5c0,4.142,3.358,7.5,7.5,7.5h272.962c4.142,0,7.5-3.358,7.5-7.5c0-4.142-3.358-7.5-7.5-7.5H230.857
	c1.739-2.081,2.615-4.658,2.615-7.267v-19.436h220.898c4.142,0,7.5-3.358,7.5-7.5c0-4.142-3.358-7.5-7.5-7.5H233.472v-9.911h16.403
	c10.194,0,18.815-7.115,21.011-16.793H454.37c4.142,0,7.5-3.358,7.5-7.5c0-4.142-3.358-7.5-7.5-7.5H271.436v-26.704h182.934
	c4.142,0,7.5-3.358,7.5-7.5c0-4.142-3.358-7.5-7.5-7.5H271.436v-45.761h212.808c7.033,0,12.755,5.721,12.755,12.754v106.81
	C496.999,244.311,500.357,247.669,504.5,247.669z"/>
<g>
</g>
<g>
</g>
<g>
</g>
<g>
</g>
<g>
</g>
<g>
</g>
<g>
</g>
<g>
</g>
<g>
</g>
<g>
</g>
<g>
</g>
<g>
</g>
<g>
</g>
<g>
</g>
<g>
</g>
</svg>
